<?xml version="1.0" encoding="UTF-8"?>
<svg version="1.1" xmlns="http://www.w3.org/2000/svg" width="567" height="438">
<path d="M0 0 C187.11 0 374.22 0 567 0 C567 144.54 567 289.08 567 438 C379.89 438 192.78 438 0 438 C0 293.46 0 148.92 0 0 Z " fill="#FBFDFE" transform="translate(0,0)"/>
<path d="M0 0 C0.05607422 1.72669922 0.05607422 1.72669922 0.11328125 3.48828125 C1.24107015 32.61304324 5.70019847 67.80229918 28.2109375 88.71484375 C35.97984141 95.08012216 44.53355753 99.77987078 53.37890625 104.44775391 C74.11514643 115.41987567 74.11514643 115.41987567 78 125 C78.0777346 127.33203812 78.08967728 129.66839059 78 132 C71.19034487 131.09142153 64.45906197 129.8196015 57.70898438 128.54882812 C45.23638474 126.2403878 32.8619285 124.70298525 20.1953125 124 C18.8187172 123.91862425 17.44216142 123.8365775 16.06564331 123.75390625 C11.75246037 123.49616584 7.43877875 123.24753765 3.125 123 C-32.44380188 120.9552881 -32.44380188 120.9552881 -45 119 C-45.8564209 118.87125488 -46.7128418 118.74250977 -47.59521484 118.60986328 C-61.14811111 116.4791621 -73.19871252 113.33386979 -86 108 C-86 94.14 -86 80.28 -86 66 C-81.545 65.01 -81.545 65.01 -77 64 C-73.75477169 61.37619839 -71.46418489 58.9099223 -70 55 C-70.14769033 52.90990579 -70.35111158 50.82339697 -70.59375 48.7421875 C-70.6672991 42.75629358 -70.6672991 42.75629358 -67.95703125 39.68457031 C-64.89869423 37.58063065 -61.79413103 35.8366427 -58.5 34.125 C-57.31281789 33.46136356 -56.12859786 32.79240289 -54.94726562 32.1184082 C-52.51170916 30.73345371 -50.06543836 29.3711708 -47.609375 28.02294922 C-42.10036452 24.97061494 -36.81237561 21.56648944 -31.5 18.1875 C-29.54020029 16.95912036 -27.57928415 15.73251989 -25.6171875 14.5078125 C-24.68100586 13.92290039 -23.74482422 13.33798828 -22.78027344 12.73535156 C-18.40081449 10.00184311 -14.01838979 7.27357126 -9.625 4.5625 C-8.87541016 4.09545654 -8.12582031 3.62841309 -7.35351562 3.1472168 C-2.23073117 0 -2.23073117 0 0 0 Z " fill="#3680C3" transform="translate(317,73)"/>
<path d="M0 0 C9.99755377 9.14062059 13.55633808 19.97411282 14.2734375 33.234375 C15.25961296 63.7315134 -0.07450308 91.67433835 -13.30395508 118.33276367 C-17.21855556 126.22964819 -20.90992215 134.18451273 -24.39111328 142.2824707 C-25.81150645 145.58639709 -27.28697807 148.86335297 -28.7744751 152.13752747 C-35.58869647 167.16182739 -40.28762788 182.72576729 -43 199 C-47.62 199 -52.24 199 -57 199 C-56.53029832 191.00202424 -55.13327897 184.17394153 -52.5 176.625 C-52.13890137 175.57465576 -51.77780273 174.52431152 -51.40576172 173.44213867 C-45.53948852 156.68190018 -37.99724266 140.85668879 -30.1875 124.9375 C-3.05444079 74.18113067 -3.05444079 74.18113067 -3 19 C-4.2731346 16.73784841 -5.59307883 14.71346669 -7.20703125 12.68359375 C-8 11 -8 11 -7.33203125 9.01953125 C-5.96669459 6.9495047 -4.5177176 5.10698511 -2.875 3.25 C-2.33617187 2.63640625 -1.79734375 2.0228125 -1.2421875 1.390625 C-0.83226562 0.93171875 -0.42234375 0.4728125 0 0 Z " fill="#0EB8DD" transform="translate(438,239)"/>
<path d="M0 0 C0.76699219 0.30292969 1.53398437 0.60585937 2.32421875 0.91796875 C16.62224089 6.31501544 31.26907635 9.75772805 46.4453125 11.5546875 C47.5170018 11.68210327 48.5886911 11.80951904 49.69285583 11.9407959 C63.63308297 13.51224907 77.62890353 14.04249239 91.63696289 14.65673828 C128.5216456 16.3072742 169.5497021 18.96344184 199 44 C197.27845212 47.76488042 195.00765886 50.15063897 192 53 C188.31033764 51.66069195 185.34687898 49.97821537 182.125 47.75 C153.08980946 29.04015797 114.69052453 27.84859472 81.3125 26 C53.33119743 24.44107946 26.59919195 21.02687509 0 12 C0 8.04 0 4.08 0 0 Z " fill="#0CB6DB" transform="translate(231,187)"/>
<path d="M0 0 C1.03189453 0.56847656 2.06378906 1.13695312 3.12695312 1.72265625 C4.18978516 2.32464844 5.25261719 2.92664063 6.34765625 3.546875 C7.40662109 4.13339844 8.46558594 4.71992188 9.55664062 5.32421875 C14.86568919 8.27185021 20.14522826 11.27122648 25.41015625 14.296875 C25.54620331 28.30972172 24.77050859 40.62298843 21.41015625 54.296875 C20.42015625 54.296875 19.43015625 54.296875 18.41015625 54.296875 C16.72484307 52.26045491 15.31844565 50.32806778 13.91015625 48.109375 C13.50796875 47.47588135 13.10578125 46.8423877 12.69140625 46.18969727 C6.73174712 36.33739071 5.94672348 25.60179145 5.41015625 14.296875 C3.10015625 14.626875 0.79015625 14.956875 -1.58984375 15.296875 C-1.37328125 16.31007812 -1.15671875 17.32328125 -0.93359375 18.3671875 C-0.65203176 19.71868504 -0.37079925 21.07025125 -0.08984375 22.421875 C0.05324219 23.08703125 0.19632812 23.7521875 0.34375 24.4375 C1.17138455 28.45743922 1.56346283 32.19592399 1.41015625 36.296875 C-2.3153661 37.16749148 -6.04569366 38.01544454 -9.77734375 38.859375 C-11.35999023 39.2296582 -11.35999023 39.2296582 -12.97460938 39.60742188 C-13.99619141 39.83623047 -15.01777344 40.06503906 -16.0703125 40.30078125 C-17.00770264 40.51549072 -17.94509277 40.7302002 -18.91088867 40.95141602 C-22.00456582 41.35035461 -23.6967689 41.52783395 -26.58984375 40.296875 C-28.25215639 37.79511069 -29.52492055 35.52361886 -30.796875 32.83203125 C-31.16713303 32.08352402 -31.53739105 31.33501678 -31.91886902 30.56382751 C-33.09708952 28.17027341 -34.24929634 25.76513962 -35.40234375 23.359375 C-36.19700071 21.74206766 -36.99320695 20.12552057 -37.79101562 18.50976562 C-38.5443366 16.9720235 -39.29633558 15.4336329 -40.046875 13.89453125 C-40.40304398 13.16428238 -40.75921295 12.43403351 -41.12617493 11.68165588 C-43.58984375 6.53472429 -43.58984375 6.53472429 -43.58984375 4.296875 C-39.38221226 3.31467592 -35.1736209 2.33665216 -30.96484375 1.359375 C-29.77503906 1.08158203 -28.58523438 0.80378906 -27.359375 0.51757812 C-26.20566406 0.25009766 -25.05195313 -0.01738281 -23.86328125 -0.29296875 C-22.80544434 -0.53909912 -21.74760742 -0.78522949 -20.65771484 -1.03881836 C-12.9978579 -2.6974584 -7.08543549 -3.95757531 0 0 Z " fill="#3982C3" transform="translate(428.58984375,137.703125)"/>
<path d="M0 0 C0.66 0 1.32 0 2 0 C6.79209591 26.2287383 7.32427927 52.42656132 7 79 C3.31425142 79.67659781 -0.37383949 80.33947761 -4.0625 81 C-5.10083984 81.19078125 -6.13917969 81.3815625 -7.20898438 81.578125 C-8.22412109 81.75859375 -9.23925781 81.9390625 -10.28515625 82.125 C-11.21207275 82.29257812 -12.13898926 82.46015625 -13.09399414 82.6328125 C-16.41900044 83.05294267 -19.65205478 83.0582568 -23 83 C-23.02505615 81.75500732 -23.0501123 80.51001465 -23.07592773 79.22729492 C-23.17083949 74.56233242 -23.27084783 69.89749016 -23.37231445 65.23266602 C-23.41534929 63.22227817 -23.45704309 61.21186112 -23.49731445 59.20141602 C-23.55578796 56.29434442 -23.61925062 53.38741568 -23.68359375 50.48046875 C-23.70030624 49.59667038 -23.71701874 48.71287201 -23.73423767 47.80229187 C-23.8989155 40.70118921 -24.1877741 33.53833432 -25.44114685 26.53507996 C-25.89918031 23.94788818 -25.87264064 22.49636003 -25 20 C-21.42412824 16.08947126 -17.27245702 13.08666155 -13 10 C-11.85307035 9.13729396 -10.70850328 8.27143736 -9.56640625 7.40234375 C-7.4884415 5.82392516 -5.40066986 4.26456699 -3.30078125 2.71484375 C-1.14919452 1.197323 -1.14919452 1.197323 0 0 Z " fill="#3882C3" transform="translate(527,318)"/>
<path d="M0 0 C3.96 0 7.92 0 12 0 C11.72285156 1.3509375 11.44570312 2.701875 11.16015625 4.09375 C10.79411452 5.89580159 10.42823788 7.69788672 10.0625 9.5 C9.88009766 10.386875 9.69769531 11.27375 9.50976562 12.1875 C4.83276541 35.317392 5.97414365 59.03363141 11 82 C11.14953125 82.71639648 11.2990625 83.43279297 11.453125 84.17089844 C17.04974343 110.40504733 31.28960746 135.81448024 51 154 C50.54965877 155.62723299 50.08944646 157.25173664 49.625 158.875 C49.36976563 159.77992188 49.11453125 160.68484375 48.8515625 161.6171875 C48 164 48 164 46 166 C15.5228166 139.54444812 -2.52123139 101.2029692 -6 61 C-7.14022122 40.20171959 -6.0958828 20.0293292 0 0 Z " fill="#95CDF9" transform="translate(124,0)"/>
<path d="M0 0 C5.60110248 0.11954862 11.20207319 0.24385989 16.80297852 0.37231445 C18.70268996 0.41524488 20.60242972 0.45694295 22.50219727 0.49731445 C33.03287615 0.72196154 43.5087042 1.00333301 54 2 C53.56171875 2.86496094 53.1234375 3.72992188 52.671875 4.62109375 C43.34035527 23.11323545 34.18960707 41.55538087 27 61 C20.73 61 14.46 61 8 61 C7.81824219 58.98261719 7.63648438 56.96523438 7.44921875 54.88671875 C6.09399228 40.17491171 4.64410857 25.54746358 2 11 C1.82355957 10.02482422 1.64711914 9.04964844 1.46533203 8.04492188 C0.97882402 5.36292343 0.49029463 2.68130841 0 0 Z " fill="#3881C3" transform="translate(347,334)"/>
<path d="M0 0 C0.66515625 0.27070313 1.3303125 0.54140625 2.015625 0.8203125 C5.57439624 2.22705192 9.15181876 3.57313511 12.75 4.875 C13.48863281 5.14401123 14.22726563 5.41302246 14.98828125 5.69018555 C19.56302723 7.3026674 24.04941377 8.48205208 28.81079102 9.39111328 C37.55309566 11.07386312 42.41158376 13.96181725 48 21 C49.32433943 22.34226697 50.65655267 23.67685797 52 25 C49.61786496 29.6459622 47.23336858 34.29070169 44.84667969 38.93432617 C44.03515719 40.51407051 43.22427994 42.09414648 42.4140625 43.67456055 C41.24909397 45.94667748 40.08180707 48.21759006 38.9140625 50.48828125 C38.55253082 51.19463211 38.19099915 51.90098297 37.81851196 52.6287384 C36.32557605 55.52708293 34.8106383 58.28404255 33 61 C23.508791 56.7841374 15.57193751 47.95829279 8 41 C7.44393066 40.48904785 6.88786133 39.9780957 6.31494141 39.45166016 C-4.40899493 29.59100507 -4.40899493 29.59100507 -6 28 C-5.69178742 18.29130381 -2.73125825 9.25201133 0 0 Z " fill="#3881C3" transform="translate(115,149)"/>
<path d="M0 0 C2.19671995 6.69851823 3.07672681 13.53586846 4.0625 20.5 C4.23587891 21.69753906 4.40925781 22.89507812 4.58789062 24.12890625 C5.17220075 28.17206366 5.75005017 32.21607459 6.31689453 36.26171875 C6.6439891 38.59048313 6.97573756 40.89042771 7.484375 43.1875 C7.81538557 45.44616035 7.77273123 46.83721594 7 49 C4.23876371 51.49383235 1.09166857 53.16387906 -2.15917969 54.94726562 C-5.72888272 56.98871914 -9.12836703 59.30314216 -12.5625 61.5625 C-18.63193338 65.5090407 -24.75338998 69.33860385 -31 73 C-31.10813282 66.06905936 -30.80668617 59.25815414 -30.1953125 52.35546875 C-30.11127167 51.38265457 -30.02723083 50.40984039 -29.94064331 49.407547 C-29.76298938 47.36956221 -29.5830403 45.33177629 -29.40087891 43.29418945 C-29.12426741 40.1792503 -28.86065873 37.06337978 -28.59765625 33.94726562 C-28.42266371 31.95826379 -28.24690924 29.9693288 -28.0703125 27.98046875 C-27.99313995 27.05332565 -27.91596741 26.12618256 -27.8364563 25.17094421 C-27.03035167 16.41444604 -27.03035167 16.41444604 -25 13 C-22.80102539 11.23901367 -22.80102539 11.23901367 -20.09765625 9.66796875 C-18.63875977 8.81235352 -18.63875977 8.81235352 -17.15039062 7.93945312 C-16.13138672 7.36130859 -15.11238281 6.78316406 -14.0625 6.1875 C-13.04736328 5.59001953 -12.03222656 4.99253906 -10.98632812 4.37695312 C-3.42795536 0 -3.42795536 0 0 0 Z " fill="#3982C3" transform="translate(511,189)"/>
<path d="M0 0 C0.8438546 38.28178863 0.8438546 38.28178863 -4 56 C-4.22445801 56.82806152 -4.44891602 57.65612305 -4.68017578 58.50927734 C-6.02140345 63.3727507 -7.46336914 68.19487972 -9 73 C-18.63219927 63.8853019 -23.56875687 52.23552207 -28 40 C-28.38027344 39.00355469 -28.76054687 38.00710937 -29.15234375 36.98046875 C-31.25501158 31.18027938 -32.64244366 25.36802297 -33.75 19.3125 C-33.87785889 18.62365723 -34.00571777 17.93481445 -34.13745117 17.22509766 C-35.00452884 12.10317653 -35.10192414 7.19303472 -35 2 C-32.16767674 1.65519543 -29.33470052 1.32421613 -26.5 1 C-25.72785156 0.90460937 -24.95570313 0.80921875 -24.16015625 0.7109375 C-16.10884978 -0.19080882 -8.08859513 -0.0908264 0 0 Z " fill="#3882C3" transform="translate(188,62)"/>
<path d="M0 0 C1.78277344 0.18175781 1.78277344 0.18175781 3.6015625 0.3671875 C8.10048608 0.8236067 12.60033271 1.27027474 17.10058594 1.71337891 C18.97383111 1.89855825 20.84689338 2.08560161 22.71972656 2.27490234 C34.58316039 3.46907638 46.40100575 4.29348378 58.32128906 4.65844727 C59.76133301 4.70569946 59.76133301 4.70569946 61.23046875 4.75390625 C62.08020264 4.77783447 62.92993652 4.8017627 63.80541992 4.82641602 C66 5 66 5 69 6 C69.29211698 14.86088167 68.44796872 23.26047454 67 32 C66.24460937 31.86722656 65.48921875 31.73445313 64.7109375 31.59765625 C53.51099044 29.80094343 42.32280812 29.37834974 31 29 C30.41263863 24.63410135 29.86855995 20.41216343 29.9375 16 C29.94652344 15.236875 29.95554687 14.47375 29.96484375 13.6875 C29.97644531 13.130625 29.98804688 12.57375 30 12 C27.69 11.67 25.38 11.34 23 11 C23.33 17.27 23.66 23.54 24 30 C18.29544146 31.90151951 11.07210514 32.52118754 5.578125 29.80078125 C3.61410819 28.2897063 1.81397227 26.68645948 0 25 C-1.14979197 24.1840186 -2.31517626 23.38922506 -3.5 22.625 C-4.325 22.08875 -5.15 21.5525 -6 21 C-5.56730125 19.1863478 -5.12853661 17.37414268 -4.6875 15.5625 C-4.44386719 14.55316406 -4.20023438 13.54382813 -3.94921875 12.50390625 C-2.80317618 8.27345282 -1.42323318 4.14396604 0 0 Z " fill="#3A82C3" transform="translate(260,214)"/>
<path d="M0 0 C3.76481099 1.8824055 6.89187399 4.05889962 10.1875 6.625 C10.76338867 7.07302979 11.33927734 7.52105957 11.93261719 7.98266602 C20.76454658 14.90708584 28.11837588 22.09297533 35 31 C35.80050781 32.03125 36.60101563 33.0625 37.42578125 34.125 C48 47.97013093 48 47.97013093 48 52 C40.09532426 54.06208932 32.36289055 55.42886763 24.25488281 56.29589844 C18.99508893 56.86123683 13.81433526 57.65432188 8.61328125 58.6328125 C6 59 6 59 0 59 C0 39.53 0 20.06 0 0 Z " fill="#3881C3" transform="translate(388,30)"/>
<path d="M0 0 C3.59160262 12.76165186 5.41010903 25.86090103 7 39 C2.82077134 40.00408305 -1.36013568 41.00075509 -5.54272461 41.99072266 C-6.96410226 42.32822906 -8.38500934 42.66772386 -9.80541992 43.00927734 C-11.85213423 43.50106229 -13.90045773 43.98557218 -15.94921875 44.46875 C-17.17987061 44.76201172 -18.41052246 45.05527344 -19.6784668 45.35742188 C-22.56932927 45.91668318 -25.07118015 46.13611113 -28 46 C-31.92736983 38.22448683 -35.40466848 30.49412694 -37.875 22.125 C-38.07762451 21.44896729 -38.28024902 20.77293457 -38.48901367 20.07641602 C-39.50494342 16.47352661 -40.17214523 12.9714255 -40.55908203 9.24560547 C-40.64336456 8.44702118 -40.72764709 7.64843689 -40.81448364 6.82565308 C-40.87570404 6.22318756 -40.93692444 5.62072205 -41 5 C-35.80433574 4.28451151 -30.6082079 3.5725265 -25.41162109 2.86376953 C-23.64423691 2.6222173 -21.87698273 2.37971188 -20.10986328 2.13623047 C-17.56837077 1.78622166 -15.02642894 1.43965465 -12.484375 1.09375 C-11.30134796 0.92969666 -11.30134796 0.92969666 -10.09442139 0.7623291 C-6.68315284 0.30115878 -3.44990064 0 0 0 Z " fill="#3882C3" transform="translate(368,99)"/>
<path d="M0 0 C3.40544067 11.72240503 6.45712829 23.46890184 8.875 35.4375 C9.08987061 36.48413818 9.30474121 37.53077637 9.52612305 38.60913086 C10.55163705 43.83497402 11.25466502 48.67450507 11 54 C-0.52164009 57.44419134 -0.52164009 57.44419134 -6 57 C-7.66554027 51.69960141 -9.27275406 46.52706913 -10 41 C-10.75925781 41.2165625 -11.51851563 41.433125 -12.30078125 41.65625 C-13.29464844 41.9346875 -14.28851563 42.213125 -15.3125 42.5 C-16.29863281 42.7784375 -17.28476562 43.056875 -18.30078125 43.34375 C-21 44 -21 44 -24 44 C-24.9993573 39.05257386 -25.99620979 34.10465223 -26.99072266 29.15625 C-27.32954851 27.47219128 -27.66906397 25.78827115 -28.00927734 24.10449219 C-28.49757434 21.68720849 -28.98340639 19.26944068 -29.46875 16.8515625 C-29.62186646 16.0963028 -29.77498291 15.34104309 -29.93273926 14.56289673 C-31 9.22774341 -31 9.22774341 -31 7 C-8.33852649 -0.30656347 -8.33852649 -0.30656347 0 0 Z " fill="#3982C3" transform="translate(334,307)"/>
<path d="M0 0 C6.73871709 0.69429206 14.2039225 2.41877341 20 6 C21.8125 9.5 21.8125 9.5 23 13 C23.83869629 13.58104492 24.67739258 14.16208984 25.54150391 14.76074219 C28 17 28 17 28.58349609 20.35644531 C28.56367676 21.66709961 28.54385742 22.97775391 28.5234375 24.328125 C28.51873444 25.0359613 28.51403137 25.74379761 28.50918579 26.4730835 C28.48788877 28.7330553 28.43139912 30.99066102 28.375 33.25 C28.35848092 34.75388373 28.34413594 36.25779301 28.33203125 37.76171875 C28.24930888 44.58392525 27.93023641 51.24097183 27 58 C14.92654184 54.61095911 3.37546225 48.34078286 -6 40 C-6.57234375 39.51402344 -7.1446875 39.02804688 -7.734375 38.52734375 C-9 37 -9 37 -9 33.375 C-8.19973138 27.88102103 -6.50011303 22.62345209 -4.87792969 17.32763672 C-3.40011331 12.48440008 -2.20385177 7.68680246 -1.359375 2.6875 C-1 1 -1 1 0 0 Z " fill="#3982C3" transform="translate(196,120)"/>
<path d="M0 0 C1.72713627 6.51177054 2.97853786 13.05075803 4.125 19.6875 C4.30675781 20.70650391 4.48851562 21.72550781 4.67578125 22.77539062 C4.84722656 23.76087891 5.01867187 24.74636719 5.1953125 25.76171875 C5.35016113 26.64819092 5.50500977 27.53466309 5.66455078 28.44799805 C5.9996441 30.99729242 6.05944458 33.43205193 6 36 C-5.3136928 33.53183667 -16.59885527 30.94621684 -27.875 28.3125 C-28.87784027 28.0783992 -28.87784027 28.0783992 -29.90093994 27.83956909 C-42.02573786 25.00777228 -42.02573786 25.00777228 -46 24 C-46.0272367 21.47909222 -46.04695207 18.95848543 -46.0625 16.4375 C-46.07087891 15.73302734 -46.07925781 15.02855469 -46.08789062 14.30273438 C-46.10882603 9.75975202 -45.74800682 5.48215108 -45 1 C-29.99458499 0.37185081 -15.01984454 -0.17670405 0 0 Z " fill="#3881C3" transform="translate(112,55)"/>
<path d="M0 0 C2.02734375 2.08984375 2.02734375 2.08984375 3.9375 4.9375 C4.61554688 5.94039062 5.29359375 6.94328125 5.9921875 7.9765625 C6.65476562 8.97429687 7.31734375 9.97203125 8 11 C8.62132812 11.83273438 9.24265625 12.66546875 9.8828125 13.5234375 C10.71425781 14.65652344 10.71425781 14.65652344 11.5625 15.8125 C12.05878906 16.47894531 12.55507813 17.14539063 13.06640625 17.83203125 C14.42817253 20.99429185 13.91282413 22.68314334 13 26 C11.7718926 29.0227323 10.37435524 31.94669398 8.9375 34.875 C8.37192383 36.050625 8.37192383 36.050625 7.79492188 37.25 C6.87006766 39.16995053 5.93596022 41.085439 5 43 C0.52317875 43 -0.52302766 42.28917125 -4.1875 39.9375 C-7.899739 37.65692796 -11.41904148 35.76157321 -15.49609375 34.22265625 C-16.26219971 33.93334229 -17.02830566 33.64402832 -17.81762695 33.34594727 C-19.33254487 32.79053614 -20.85593703 32.25761633 -22.38745117 31.74975586 C-24.45946922 30.98655658 -26.19512012 30.27426554 -28 29 C-29.3984375 25.6015625 -29.3984375 25.6015625 -30 22 C-30.49554518 20.29036912 -30.99507007 18.5818827 -31.5 16.875 C-31.7371875 16.06804687 -31.974375 15.26109375 -32.21875 14.4296875 C-33.03254499 11.89878508 -34.00218947 9.46328072 -35 7 C-30.82077134 5.99591695 -26.63986432 4.99924491 -22.45727539 4.00927734 C-21.03589774 3.67177094 -19.61499066 3.33227614 -18.19458008 2.99072266 C-16.14786577 2.49893771 -14.09954227 2.01442782 -12.05078125 1.53125 C-10.82012939 1.23798828 -9.58947754 0.94472656 -8.3215332 0.64257812 C-5.40020848 0.07742365 -2.95411567 -0.30583708 0 0 Z " fill="#3982C3" transform="translate(432,180)"/>
<path d="M0 0 C2.12134843 5.1947352 4.23917434 10.39088706 6.35375977 15.58837891 C7.07349748 17.35602491 7.7941934 19.12328107 8.51586914 20.89013672 C9.55347274 23.43094444 10.58761375 25.97313768 11.62109375 28.515625 C11.94403915 29.30430969 12.26698456 30.09299438 12.59971619 30.90557861 C12.89995193 31.64604431 13.20018768 32.38651001 13.50952148 33.14941406 C13.77377426 33.79783264 14.03802704 34.44625122 14.31028748 35.11431885 C15.02523403 37.06899011 15.61324939 38.95380531 16 41 C13.94986519 43.05013481 9.98934611 42.80945066 7.16796875 43.19140625 C6.37981277 43.30097153 5.5916568 43.4105368 4.77961731 43.52342224 C3.10783278 43.75486004 1.4357588 43.98421494 -0.23657227 44.21166992 C-2.79193165 44.55969868 -5.34619087 44.91505573 -7.90039062 45.27148438 C-9.52337701 45.49523092 -11.14642211 45.71855201 -12.76953125 45.94140625 C-13.53320511 46.04763809 -14.29687897 46.15386993 -15.08369446 46.26332092 C-18.43667575 46.71621528 -21.60842053 47 -25 47 C-26.77187746 36.99791366 -27.9775542 26.04394149 -26 16 C-22.76334653 11.49561051 -19.02639003 10.08203741 -14 8 C-11.71449394 6.59418587 -9.56792476 5.05310046 -7.375 3.5 C-2.24615385 0 -2.24615385 0 0 0 Z " fill="#47A8F5" transform="translate(350,51)"/>
<path d="M0 0 C18 1.125 18 1.125 24.5 2.0625 C26.37171875 2.32740234 26.37171875 2.32740234 28.28125 2.59765625 C29.1784375 2.73042969 30.075625 2.86320312 31 3 C30.04976236 10.93557238 28.7907698 18.79001354 27.37329102 26.65478516 C27.08252059 28.30297291 26.80453127 29.95346612 26.53930664 31.60595703 C24.03512344 47.13651598 24.03512344 47.13651598 19.00390625 51.1796875 C16.66528924 52.62124993 15.62391177 53.09609792 12.89819336 52.67626953 C11.45686317 52.16276669 10.03516775 51.59375484 8.625 51 C5.51442314 49.71606099 5.51442314 49.71606099 0 49 C0 32.83 0 16.66 0 0 Z " fill="#3982C4" transform="translate(230,57)"/>
<path d="M0 0 C4.28974183 1.71589673 7.92910227 3.7047044 11.8125 6.125 C24.53403292 13.86807093 38.03361861 19.99526596 51.5 26.3125 C52.48457687 26.77552017 52.48457687 26.77552017 53.48904419 27.24789429 C62.04594 31.30469613 62.04594 31.30469613 70.84375 34.79296875 C74 36 74 36 75 38 C75.07194869 40.88370333 75.09291708 43.74239664 75.0625 46.625 C75.05798828 47.42679687 75.05347656 48.22859375 75.04882812 49.0546875 C75.03703168 51.03649006 75.01909605 53.01825433 75 55 C70.69943761 54.37690431 67.38742479 52.84935659 63.5390625 50.859375 C62.92053909 50.54106216 62.30201569 50.22274933 61.66474915 49.89479065 C59.64776262 48.85356303 57.63614305 47.802465 55.625 46.75 C54.93326691 46.39030121 54.24153381 46.03060242 53.52883911 45.66000366 C33.28264101 35.13097641 13.59866714 23.68271768 -6 12 C-4.02 8.04 -2.04 4.08 0 0 Z " fill="#3C83C2" transform="translate(151,229)"/>
<path d="M0 0 C0.5583252 0.19190918 1.11665039 0.38381836 1.69189453 0.58154297 C5.4611085 1.86019894 9.17219837 3.06248764 13.0546875 3.9453125 C21.07093345 6.42067679 21.07093345 6.42067679 24 10 C27.19609262 18.76460821 28.49948507 30.90961086 26 40 C24.1875 41.51171875 24.1875 41.51171875 22 42.6875 C18.90169322 44.25050403 18.90169322 44.25050403 17 47 C10.55884053 44.93754541 4.2584802 42.62545016 -2 40.0625 C-2.85722656 39.72798828 -3.71445313 39.39347656 -4.59765625 39.04882812 C-5.81775391 38.54706055 -5.81775391 38.54706055 -7.0625 38.03515625 C-7.79597656 37.7400415 -8.52945313 37.44492676 -9.28515625 37.14086914 C-11 36 -11 36 -11.90405273 34.3347168 C-12.04938857 30.79821156 -10.74745534 27.84495146 -9.47265625 24.609375 C-9.20488876 23.90476135 -8.93712128 23.20014771 -8.66123962 22.47418213 C-7.8052168 20.22871608 -6.93411866 17.98945228 -6.0625 15.75 C-5.47881397 14.22694679 -4.89611969 12.70351311 -4.31445312 11.1796875 C-2.88776467 7.44861559 -1.4475299 3.72303299 0 0 Z " fill="#3982C3" transform="translate(203,281)"/>
<path d="M0 0 C12.87 0 25.74 0 39 0 C42 11 42 11 42 16 C39.76953125 17.87890625 39.76953125 17.87890625 36.8125 19.5625 C32.9383305 21.80816987 29.44037563 24.12568252 26 27 C21.92623969 25.38989473 19.23492931 22.46177729 16.25 19.375 C15.74339844 18.859375 15.23679687 18.34375 14.71484375 17.8125 C13.47196098 16.54616661 12.23534724 15.2736856 11 14 C9.02 14.66 7.04 15.32 5 16 C9.46351289 21.22325977 14.0744893 26.20922972 19 31 C16.36327434 36.39634956 16.36327434 36.39634956 14 38 C8.08698265 37.74370823 3.61331901 34.82945209 -1.375 31.9375 C-2.20644531 31.46505859 -3.03789062 30.99261719 -3.89453125 30.50585938 C-5.9344349 29.34522454 -7.96922018 28.17650227 -10 27 C-7.56296526 17.55358915 -3.76340578 9.13969976 0 0 Z " fill="#3B83C2" transform="translate(446,319)"/>
<path d="M0 0 C3.78995975 0.59654026 6.70356326 1.70067487 10.08203125 3.50390625 C11.01337891 3.99697266 11.94472656 4.49003906 12.90429688 4.99804688 C13.86400391 5.51431641 14.82371094 6.03058594 15.8125 6.5625 C16.79154297 7.08263672 17.77058594 7.60277344 18.77929688 8.13867188 C21.1893066 9.42009168 23.59600219 10.70734711 26 12 C25.10331298 18.81104721 22.4985438 24.88666203 19.96240234 31.21508789 C19.12241937 33.31896362 18.30114645 35.42954663 17.48046875 37.54101562 C16.94903987 38.87805115 16.4165259 40.21465601 15.8828125 41.55078125 C15.40215332 42.76419189 14.92149414 43.97760254 14.42626953 45.2277832 C13 48 13 48 10 49 C8.1340332 48.27490234 8.1340332 48.27490234 6.05078125 47.0859375 C5.28443359 46.65410156 4.51808594 46.22226562 3.72851562 45.77734375 C2.93123047 45.31457031 2.13394531 44.85179687 1.3125 44.375 C0.53455078 43.93542969 -0.24339844 43.49585938 -1.04492188 43.04296875 C-6.11377818 40.15976608 -11.07975879 37.12929705 -16 34 C-14.61902341 29.5251617 -12.85081321 25.46797526 -10.7421875 21.2890625 C-10.43427277 20.67606293 -10.12635803 20.06306335 -9.80911255 19.43148804 C-8.83484937 17.49406342 -7.85503083 15.5595124 -6.875 13.625 C-6.2092647 12.30357212 -5.54389647 10.98195924 -4.87890625 9.66015625 C-3.25684177 6.43795475 -1.62978626 3.21830407 0 0 Z " fill="#3982C3" transform="translate(141,248)"/>
<path d="M0 0 C0.99 0 1.98 0 3 0 C4.88136982 5.21032703 6.75077023 10.42473247 8.60913086 15.64331055 C9.24321257 17.41857695 9.880569 19.1926772 10.52124023 20.96557617 C11.44073882 23.51182516 12.3484394 26.06201421 13.25390625 28.61328125 C13.54342667 29.40712723 13.83294708 30.20097321 14.13124084 31.01887512 C16.11387171 36.65838488 16.11387171 36.65838488 15 40 C7.32443895 46.82603294 -0.01248382 48.06763555 -10 48 C-11.65128906 48.01933594 -11.65128906 48.01933594 -13.3359375 48.0390625 C-15.89252141 48.05877909 -18.44391903 48.04694843 -21 48 C-20.86980469 46.98808594 -20.73960937 45.97617188 -20.60546875 44.93359375 C-20.25370736 42.18186308 -19.9445656 39.43360503 -19.67431641 36.67236328 C-17.09693117 11.14445744 -17.09693117 11.14445744 -11.58984375 6.0703125 C-8.27557026 3.74354157 -4.82186516 2.2956323 -1 1 C-0.67 0.67 -0.34 0.34 0 0 Z " fill="#3B83C4" transform="translate(480,148)"/>
<path d="M0 0 C3.53438866 1.36473636 6.91654955 2.89955124 10.30078125 4.6015625 C11.27724609 5.09140625 12.25371094 5.58125 13.25976562 6.0859375 C14.26716797 6.59382813 15.27457031 7.10171875 16.3125 7.625 C17.33923828 8.140625 18.36597656 8.65625 19.42382812 9.1875 C21.95013349 10.45652781 24.47548382 11.72741766 27 13 C24.54339947 20.63096841 21.71145927 28.08971911 18.8125 35.5625 C18.34908203 36.76197266 17.88566406 37.96144531 17.40820312 39.19726562 C16.27397475 42.1322277 15.13786515 45.0664464 14 48 C10.01207054 46.74577315 6.33050596 45.28484419 2.6015625 43.3984375 C1.62832031 42.90859375 0.65507812 42.41875 -0.34765625 41.9140625 C-1.84619141 41.15222656 -1.84619141 41.15222656 -3.375 40.375 C-4.39722656 39.859375 -5.41945312 39.34375 -6.47265625 38.8125 C-8.98362669 37.54528127 -11.49264561 36.27435444 -14 35 C-11.67899052 27.67575485 -8.86053019 20.63915297 -5.875 13.5625 C-5.41996094 12.47517578 -4.96492187 11.38785156 -4.49609375 10.26757812 C-1.17712355 2.3542471 -1.17712355 2.3542471 0 0 Z " fill="#3A82C3" transform="translate(172,265)"/>
<path d="M0 0 C2 1.7421875 2 1.7421875 4 3.875 C6.01531071 6.00839532 7.87191756 7.90705128 10.25 9.6328125 C10.8275 10.08398438 11.405 10.53515625 12 11 C12 11.66 12 12.32 12 13 C9.90234375 14.59375 9.90234375 14.59375 6.9375 16.5 C5.83921875 17.21414062 4.7409375 17.92828125 3.609375 18.6640625 C2.72475586 19.23495605 2.72475586 19.23495605 1.82226562 19.81738281 C-1.24271369 21.80649854 -4.27542717 23.84364898 -7.3125 25.875 C-8.5728717 26.71360925 -9.83328897 27.55215002 -11.09375 28.390625 C-13.81071534 30.20101671 -16.51722924 32.02602251 -19.21875 33.859375 C-20.24681763 34.55377686 -20.24681763 34.55377686 -21.2956543 35.26220703 C-22.61735535 36.1552872 -23.93662859 37.05197336 -25.25317383 37.95263672 C-29.77508754 41 -29.77508754 41 -32 41 C-33.76443404 37.93750021 -34.27435846 35.63260858 -34.37890625 32.11328125 C-34.41306641 31.17419922 -34.44722656 30.23511719 -34.48242188 29.26757812 C-34.50884766 28.29240234 -34.53527344 27.31722656 -34.5625 26.3125 C-34.77882375 19.48679516 -35.1551862 12.77945618 -36 6 C-35.45698242 5.89453857 -34.91396484 5.78907715 -34.35449219 5.68041992 C-31.81901108 5.18603866 -29.28438275 4.6874818 -26.75 4.1875 C-25.83863281 4.00807861 -24.92726563 3.82865723 -23.98828125 3.64379883 C-18.02853493 2.4534346 -12.15802004 1.09175864 -6.3125 -0.58203125 C-3.7166574 -1.05121226 -2.42675959 -1.02256604 0 0 Z " fill="#3A82C3" transform="translate(112,196)"/>
<path d="M0 0 C1.02287109 0.73863281 1.02287109 0.73863281 2.06640625 1.4921875 C3.2741019 2.18635147 4.48693723 2.8716055 5.703125 3.55078125 C7.05440995 4.34200284 8.40464375 5.13502195 9.75390625 5.9296875 C10.44291016 6.32478516 11.13191406 6.71988281 11.84179688 7.12695312 C16.95111926 10.14632653 16.95111926 10.14632653 18.06640625 13.4921875 C17.90454102 15.48510742 17.90454102 15.48510742 17.5078125 17.72265625 C17.29995117 18.92631836 17.29995117 18.92631836 17.08789062 20.15429688 C16.93642578 20.98767578 16.78496094 21.82105469 16.62890625 22.6796875 C16.48130859 23.52466797 16.33371094 24.36964844 16.18164062 25.24023438 C15.81644622 27.3253766 15.44228195 29.40894423 15.06640625 31.4921875 C4.24632928 32.06459422 -6.41865652 30.36276176 -17.12109375 28.9921875 C-19.04614661 28.7506847 -20.97127637 28.50979407 -22.89648438 28.26953125 C-27.57643783 27.68414162 -32.25527087 27.09046293 -36.93359375 26.4921875 C-31.85060424 15.70622932 -18.4644485 8.8791189 -8.55859375 2.9296875 C-7.96344971 2.5584375 -7.36830566 2.1871875 -6.75512695 1.8046875 C-2.52642539 -0.66350566 -2.52642539 -0.66350566 0 0 Z " fill="#3982C2" transform="translate(270.93359375,24.5078125)"/>
<path d="M0 0 C7.26 0 14.52 0 22 0 C21.69170046 4.25034324 21.3785429 8.50023161 21.0625 12.75 C20.97548828 13.9565625 20.88847656 15.163125 20.79882812 16.40625 C20.71181641 17.56640625 20.62480469 18.7265625 20.53515625 19.921875 C20.456604 20.99018555 20.37805176 22.05849609 20.29711914 23.15917969 C20.04610176 25.55921111 19.61064112 27.67752728 19 30 C18.80703345 31.45378188 18.6417733 32.91143003 18.5 34.37109375 C18.4175 35.19287109 18.335 36.01464844 18.25 36.86132812 C18.1675 37.71146484 18.085 38.56160156 18 39.4375 C17.00736544 49.61975921 17.00736544 49.61975921 16 54 C12.67283114 50.76008207 9.64493357 47.44188894 6.75 43.8125 C1.46749547 37.2844551 -4.00096336 30.88584727 -10 25 C-8.47011603 20.10283373 -6.52725918 15.48752826 -4.4375 10.8125 C-2.04256793 5.4770265 -2.04256793 5.4770265 0 0 Z " fill="#3982C3" transform="translate(456,203)"/>
<path d="M0 0 C17.96548153 0.63036777 33.75943642 11.65605328 46 24 C47.875 26.11328125 47.875 26.11328125 49 28 C48 31 48 31 46.26928711 32.02734375 C45.5294458 32.32769531 44.78960449 32.62804687 44.02734375 32.9375 C43.20943359 33.27523437 42.39152344 33.61296875 41.54882812 33.9609375 C40.68708984 34.30382812 39.82535156 34.64671875 38.9375 35 C38.10283203 35.34289062 37.26816406 35.68578125 36.40820312 36.0390625 C33.94581095 37.04474722 31.47527838 38.02651403 29 39 C28.24090332 39.30292969 27.48180664 39.60585938 26.69970703 39.91796875 C23.66160957 41.10288934 21.29074398 42 18 42 C17.63237549 41.17910889 17.26475098 40.35821777 16.88598633 39.51245117 C15.49771895 36.41289616 14.10917661 33.31346462 12.72045898 30.21411133 C12.12399776 28.88277908 11.52764037 27.55140031 10.93139648 26.2199707 C10.35211534 24.92645392 9.77267876 23.63300673 9.19308472 22.33963013 C8.62018824 21.06106488 8.04769714 19.78231792 7.47561646 18.50338745 C5.31114785 13.67145481 3.09750414 8.86344541 0.85424805 4.06762695 C0 2 0 2 0 0 Z " fill="#3982C2" transform="translate(314,251)"/>
<path d="M0 0 C13.51609206 0.89358615 26.80952504 1.78281099 40 5 C38.73849162 7.62757356 37.37563406 10.03959124 35.71484375 12.43359375 C35.27052002 13.07683594 34.82619629 13.72007812 34.3684082 14.3828125 C33.66010864 15.39988281 33.66010864 15.39988281 32.9375 16.4375 C32.4530542 17.13746094 31.9686084 17.83742187 31.46948242 18.55859375 C30.47197838 19.99930605 29.4733563 21.43924488 28.47363281 22.87841797 C27.07106173 24.89769277 25.67158529 26.91906702 24.2734375 28.94140625 C22.18457144 31.96252026 20.09309266 34.98181207 18 38 C11.33333333 34.66666667 4.66666667 31.33333333 -2 28 C-2.36799953 18.53423442 -1.22914592 9.36126309 0 0 Z " fill="#3982C3" transform="translate(336,220)"/>
<path d="M0 0 C0.82319985 3.76857715 1.6315297 7.54020374 2.4375 11.3125 C2.66759766 12.36501953 2.89769531 13.41753906 3.13476562 14.50195312 C4.58391845 21.32767295 5.54293922 28.03654463 6 35 C0.64176863 36.97595908 -4.78523324 38.04851139 -10.375 39.125 C-11.30183594 39.30675781 -12.22867187 39.48851562 -13.18359375 39.67578125 C-15.4550668 40.12070896 -17.72718046 40.56201206 -20 41 C-22.14741856 33.82681352 -23.55616076 26.80950598 -24.52734375 19.3828125 C-25.0640397 15.54166625 -25.8052832 11.77581919 -26.6328125 7.98828125 C-27 6 -27 6 -27 3 C-18.03763462 1.38896399 -9.12398841 0 0 0 Z " fill="#95CDF9" transform="translate(401,95)"/>
<path d="M0 0 C14.05285781 10.76389109 22.66590945 26.5762188 25 44 C25.04186764 46.33295768 25.05321809 48.66727364 25 51 C20.6365865 50.39814986 16.78597346 49.36284883 12.6875 47.75 C11.63949219 47.35296875 10.59148438 46.9559375 9.51171875 46.546875 C7 45 7 45 6.0859375 42.515625 C5.99294418 39.79345702 6.67005301 37.80593087 7.51953125 35.24609375 C8.58287383 30.27518331 8.13688732 25.05722595 8 20 C7.01 19.67 6.02 19.34 5 19 C4.83564453 20.50240234 4.83564453 20.50240234 4.66796875 22.03515625 C3.13650507 35.15469509 3.13650507 35.15469509 0 41 C-3.89608498 39.51095825 -7.59097018 37.75621287 -11.3125 35.875 C-12.38113281 35.33617187 -13.44976562 34.79734375 -14.55078125 34.2421875 C-15.35902344 33.83226562 -16.16726563 33.42234375 -17 33 C-14.21077176 25.44432974 -10.72270615 18.47021095 -6.8125 11.4375 C-6.26658203 10.44169922 -5.72066406 9.44589844 -5.15820312 8.41992188 C-1.15788849 1.15788849 -1.15788849 1.15788849 0 0 Z " fill="#3E85C4" transform="translate(508,24)"/>
<path d="M0 0 C1.65944275 12.40137127 2.2496045 24.49204127 2 37 C1.26064209 37.01458252 0.52128418 37.02916504 -0.24047852 37.04418945 C-13.82029317 37.34314609 -26.77171738 37.74162784 -40 41 C-41.99712782 41.35013083 -43.99647708 41.68854053 -46 42 C-42.70775677 36.63955269 -38.70520064 32.23390757 -34.375 27.6875 C-33.65860352 26.93275391 -32.94220703 26.17800781 -32.20410156 25.40039062 C-7.9104579 0 -7.9104579 0 0 0 Z " fill="#3A82C3" transform="translate(489,343)"/>
<path d="M0 0 C10.36717978 1.36799812 20.22344878 4.1358531 30.25 7 C32.65450796 7.68077692 35.05951919 8.35973953 37.46478271 9.0378418 C38.94796019 9.45662687 40.43062746 9.87722524 41.91265869 10.30004883 C46.58739479 11.62822604 51.28023013 12.8415471 56 14 C56 14.66 56 15.32 56 16 C51.40384621 18.48085037 46.79593779 20.93765138 42.17553711 23.37304688 C40.6056741 24.20477097 39.03921649 25.04295614 37.47631836 25.88769531 C35.22854623 27.10116391 32.96953403 28.29083697 30.70703125 29.4765625 C30.01100296 29.85873932 29.31497467 30.24091614 28.59785461 30.63467407 C25.4792437 32.24286352 23.6735904 33.15638799 20.18603516 32.34667969 C17.42914264 30.64833045 15.02533954 28.72802043 12.5625 26.625 C9.64539383 24.14359248 7.11523848 22.0598748 3.70703125 20.2890625 C0.70759186 17.75274001 0.57141213 17.35865641 0.1953125 13.671875 C0.14241123 12.03193562 0.11987255 10.39078439 0.125 8.75 C0.104375 7.90953125 0.08375 7.0690625 0.0625 6.203125 C0.01551638 4.13584555 0.00425475 2.06780891 0 0 Z " fill="#3B83C2" transform="translate(65,86)"/>
<path d="M0 0 C0 19.14 0 38.28 0 58 C-4.455 58.495 -4.455 58.495 -9 59 C-12.11653921 51.71888184 -15.00892776 44.37994013 -17.75708008 36.9543457 C-19.7128048 31.69710963 -21.82005073 26.51606221 -24.01953125 21.35546875 C-24.75095279 19.59830864 -25.39812052 17.80563845 -26 16 C-3.17913832 0 -3.17913832 0 0 0 Z " fill="#3781C3" transform="translate(381,32)"/>
<path d="M0 0 C3.84320877 3.57398224 6.66533617 7.26800245 9.3125 11.8125 C9.69567383 12.4612207 10.07884766 13.10994141 10.47363281 13.77832031 C14.34253554 20.42391702 17.80790691 27.25833332 21.13183594 34.18994141 C21.92488438 35.84338943 22.73128718 37.49041524 23.5390625 39.13671875 C26.20266651 44.7209412 27.90122399 49.9067876 29 56 C17.97636372 56.91050683 7.05694276 57.1139891 -4 57 C-3.1171875 49.34375 -3.1171875 49.34375 -2.0625 46.25 C0.78280964 37.54669992 1.179921 28.90123116 1.1875 19.8125 C1.18830566 18.88630859 1.18911133 17.96011719 1.18994141 17.00585938 C1.14386282 11.26753966 0.72680161 5.69231023 0 0 Z " fill="#3A83C3" transform="translate(454,253)"/>
<path d="M0 0 C5.75102012 -0.16819631 10.84022038 0.33193196 16.4375 1.625 C17.59125122 1.88579346 17.59125122 1.88579346 18.76831055 2.15185547 C28.8100984 4.52799237 38.45050871 8.12109638 48 12 C46.68257258 15.95228225 45.07069905 16.45708424 41.53125 18.58203125 C40.69974426 19.087024 40.69974426 19.087024 39.85144043 19.60221863 C38.07246672 20.68057575 36.28664989 21.74691849 34.5 22.8125 C32.74848516 23.86655389 30.99850399 24.92309628 29.24926758 25.98092651 C27.55161703 27.00721863 25.85199129 28.03024115 24.15234375 29.05322266 C20.60868339 31.24166346 17.17991598 33.56082665 13.78710938 35.9753418 C12 37 12 37 9 37 C5.68024602 24.72779471 2.65878172 12.43240391 0 0 Z " fill="#3A82C2" transform="translate(331,12)"/>
<path d="M0 0 C2.26643789 1.48350672 3.26797894 2.79283127 4.69360352 5.08398438 C5.39839844 6.19773437 5.39839844 6.19773437 6.11743164 7.33398438 C6.5950293 8.11 7.07262695 8.88601563 7.56469727 9.68554688 C8.52313609 11.21494324 9.48273609 12.74361265 10.44360352 14.27148438 C10.86327393 14.95001465 11.28294434 15.62854492 11.71533203 16.32763672 C13.05760589 18.39592514 14.50218659 20.35443895 16.00219727 22.31054688 C14.68150734 25.21440197 13.23226595 27.35372427 11.03344727 29.65820312 C10.46239258 30.26341797 9.89133789 30.86863281 9.30297852 31.4921875 C8.7087207 32.11287109 8.11446289 32.73355469 7.50219727 33.37304688 C6.32321544 34.61212865 5.14605853 35.85295001 3.97094727 37.09570312 C3.44952148 37.64105713 2.9280957 38.18641113 2.39086914 38.74829102 C0.79620593 40.46982151 0.79620593 40.46982151 -0.99780273 43.31054688 C-4.53100372 41.78705654 -6.94988661 39.68025178 -9.74780273 37.06054688 C-16.69317613 30.70497093 -24.12400019 25.4503902 -31.99780273 20.31054688 C-30.90190665 17.02285863 -30.52052965 16.66761304 -27.68530273 14.99804688 C-27.09104492 14.63066406 -26.49678711 14.26328125 -25.88452148 13.88476562 C-23.99780273 13.31054688 -23.99780273 13.31054688 -22.11889648 13.92382812 C-19.37769656 15.71595699 -16.89266615 17.71858479 -14.37280273 19.81054688 C-13.41116211 20.60460937 -12.44952148 21.39867188 -11.45874023 22.21679688 C-8.99780273 24.31054688 -8.99780273 24.31054688 -6.99780273 26.31054688 C-3.92788592 26.14612411 -3.92788592 26.14612411 -0.99780273 25.31054688 C-0.66780273 24.65054687 -0.33780273 23.99054687 0.00219727 23.31054688 C-0.69260742 23.0965625 -1.38741211 22.88257812 -2.10327148 22.66210938 C-5.8302479 20.92184778 -8.36172866 18.50872594 -11.31030273 15.68554688 C-12.13498047 14.91210938 -12.13498047 14.91210938 -12.97631836 14.12304688 C-14.32278327 12.85854069 -15.66112808 11.58539766 -16.99780273 10.31054688 C-14.07793092 7.21162631 -11.04699149 4.78542185 -7.49780273 2.43554688 C-6.55936523 1.79875 -5.62092773 1.16195313 -4.65405273 0.50585938 C-1.99780273 -0.68945312 -1.99780273 -0.68945312 0 0 Z " fill="#3C83C2" transform="translate(426.997802734375,3.689453125)"/>
<path d="M0 0 C10.34566893 -0.2925145 20.15597867 0.56625784 30.375 2 C31.80457323 2.19355421 33.23426069 2.38626661 34.6640625 2.578125 C38.11073983 3.04243524 41.55575377 3.51794655 45 4 C42.1347357 7.07013595 39.2466211 9.25933228 35.66015625 11.43359375 C34.60634766 12.07683594 33.55253906 12.72007813 32.46679688 13.3828125 C31.34337891 14.06085938 30.21996094 14.73890625 29.0625 15.4375 C27.31110874 16.50189233 25.5607576 17.56798202 23.81039429 18.63406372 C22.62399782 19.35635199 21.43716668 20.07792674 20.24990845 20.79879761 C16.37694448 23.15213826 12.52434646 25.53567345 8.68359375 27.94140625 C7.24004517 28.84451538 7.24004517 28.84451538 5.76733398 29.76586914 C3.95115101 30.90396775 2.13679461 32.04498751 0.32446289 33.18920898 C-0.48385986 33.69395752 -1.29218262 34.19870605 -2.125 34.71875 C-3.18074219 35.38293945 -3.18074219 35.38293945 -4.2578125 36.06054688 C-6 37 -6 37 -8 37 C-7.16927682 29.98038913 -5.54905899 23.14038976 -4 16.25 C-3.72671875 15.01894531 -3.4534375 13.78789063 -3.171875 12.51953125 C-1.13600498 3.40801495 -1.13600498 3.40801495 0 0 Z " fill="#3A83C3" transform="translate(268,62)"/>
<path d="M0 0 C0.40089844 1.0415625 0.80179688 2.083125 1.21484375 3.15625 C5.78655893 14.77608298 11.0292296 26.08445697 18.33203125 36.26953125 C19.15767578 37.62111328 19.15767578 37.62111328 20 39 C19.67 39.99 19.34 40.98 19 42 C0.42308244 37.16491187 -15.73396513 27.43501472 -31 16 C-29.44850703 12.89701405 -26.8366314 12.29802634 -23.75 10.8125 C-17.59688847 7.8264429 -11.61082112 4.63245821 -5.64453125 1.28515625 C-3 0 -3 0 0 0 Z " fill="#48A8F4" transform="translate(125,109)"/>
<path d="M0 0 C1.66085539 2.41554717 2.9306298 4.60219232 4.20703125 7.2109375 C4.57728928 7.93487701 4.9475473 8.65881653 5.32902527 9.4046936 C6.10780598 10.93550887 6.87807146 12.47068176 7.64038086 14.00976562 C8.80894671 16.36782976 10.00244134 18.71183719 11.20117188 21.0546875 C11.95461679 22.54351683 12.70661952 24.03307706 13.45703125 25.5234375 C13.81320023 26.22665131 14.1693692 26.92986511 14.53633118 27.65438843 C17 32.64861059 17 32.64861059 17 36 C11.03186452 36.77845245 8.14633417 35.128203 3.203125 31.8984375 C-0.11082565 29.93431553 -3.46620458 28.38219345 -6.97900391 26.81518555 C-15.73568735 22.89816823 -22.37241451 19.0520796 -29 12 C-30.04028441 11.01936492 -31.08167557 10.03990009 -32.125 9.0625 C-34 7 -34 7 -34 5 C-29.96416223 4.11454963 -25.92573759 3.24217216 -21.88452148 2.3815918 C-20.51136105 2.08728535 -19.13894673 1.78947427 -17.76733398 1.48803711 C-15.79077927 1.05429913 -13.81184639 0.63341319 -11.83203125 0.21484375 C-10.64327393 -0.04176025 -9.4545166 -0.29836426 -8.22973633 -0.56274414 C-2.91704459 -1.28199963 -2.91704459 -1.28199963 0 0 Z " fill="#3B83C2" transform="translate(379,145)"/>
<path d="M0 0 C9.45910719 4.37091446 18.00019858 11.68477279 26.4375 17.75 C27.19434082 18.29245361 27.95118164 18.83490723 28.73095703 19.39379883 C32.96259617 22.44956573 37.03404876 25.60600052 41 29 C39.67429579 37.54730344 37.48931859 45.72241148 35 54 C29.72289869 49.54701294 24.60524921 44.97055702 19.625 40.1875 C18.90183594 39.52685547 18.17867187 38.86621094 17.43359375 38.18554688 C13.83446774 34.69783846 11.63151296 32.33180589 11.16796875 27.2265625 C11.17078857 26.50936035 11.1736084 25.7921582 11.17651367 25.05322266 C10.78656018 20.51724914 7.21213394 17.04900564 3.91015625 14.19140625 C1.4807724 11.40432171 1.22422231 9.38570439 0.75 5.75 C0.60046875 4.67234375 0.4509375 3.5946875 0.296875 2.484375 C0.19890625 1.66453125 0.1009375 0.8446875 0 0 Z " fill="#3982C3" transform="translate(68,116)"/>
<path d="M0 0 C3.96636134 0.70510333 6.64370399 1.77631365 10.0625 3.9375 C12.9942069 5.77602806 15.89446005 7.47571557 19 9 C18.39833835 15.32694727 17.37769866 21.37702395 15.9375 27.5625 C15.298125 30.346875 14.65875 33.13125 14 36 C3.77 36 -6.46 36 -17 36 C-15.44884967 31.34654901 -13.72692434 27.1869604 -11.5234375 22.8515625 C-11.19332672 22.19417084 -10.86321594 21.53677917 -10.52310181 20.85946655 C-9.47750603 18.77938683 -8.4263553 16.70217356 -7.375 14.625 C-6.6610881 13.20721762 -5.9475427 11.78925062 -5.234375 10.37109375 C-3.49381428 6.91191323 -1.74826918 3.45529063 0 0 Z " fill="#4AA9F5" transform="translate(175,180)"/>
<path d="M0 0 C4.59792124 1.62750404 8.55319937 4.02417575 12.6875 6.5625 C17.27025852 9.41216064 17.27025852 9.41216064 22 12 C21.7834375 12.8353125 21.7834375 12.8353125 21.5625 13.6875 C18.94300384 24.45653977 20.53989307 31.59487559 24 42 C24.59071246 43.93526299 25.17489205 45.87254256 25.75 47.8125 C25.99234375 48.62332031 26.2346875 49.43414062 26.484375 50.26953125 C26.65453125 50.84058594 26.8246875 51.41164063 27 52 C25.40320196 53.3421492 23.79729803 54.67347115 22.1875 56 C21.29417969 56.7425 20.40085937 57.485 19.48046875 58.25 C17 60 17 60 14 60 C13.78065796 58.91428711 13.78065796 58.91428711 13.55688477 57.80664062 C11.39913088 47.78011697 8.23013328 38.20026449 4.9375 28.5 C4.38944722 26.86736423 3.84191805 25.23455258 3.29492188 23.6015625 C2.76869859 22.03630044 2.24202248 20.47119053 1.71484375 18.90625 C1.47209213 18.18538208 1.22934052 17.46451416 0.97923279 16.72180176 C-0.00424618 13.82614945 -1.01327973 10.96798642 -2.18530273 8.14257812 C-3.15192809 5.60044323 -3.03014154 4.48950872 -2 2 C-1.34 1.34 -0.68 0.68 0 0 Z " fill="#96CDF9" transform="translate(485,268)"/>
<path d="M0 0 C-2.3984241 9.66798387 -4.91602154 19.23155125 -8.25 28.625 C-8.50797363 29.35259521 -8.76594727 30.08019043 -9.03173828 30.82983398 C-10.85636848 35.85636848 -10.85636848 35.85636848 -12 37 C-13.4887186 37.08669432 -14.981445 37.10703494 -16.47265625 37.09765625 C-17.37177734 37.09443359 -18.27089844 37.09121094 -19.19726562 37.08789062 C-20.61555664 37.07532227 -20.61555664 37.07532227 -22.0625 37.0625 C-23.01189453 37.05798828 -23.96128906 37.05347656 -24.93945312 37.04882812 C-27.29299531 37.03700128 -29.64650532 37.01906521 -32 37 C-32 33.04 -32 29.08 -32 25 C-26.06 25 -20.12 25 -14 25 C-14 22.69 -14 20.38 -14 18 C-19.94 18 -25.88 18 -32 18 C-32.33 13.38 -32.66 8.76 -33 4 C-26.97546238 2.43808284 -20.98703535 1.56439594 -14.8125 0.875 C-14.0405127 0.78750488 -13.26852539 0.70000977 -12.47314453 0.60986328 C-8.2936752 0.16228813 -4.21063197 -0.0940173 0 0 Z " fill="#3D84C3" transform="translate(429,292)"/>
<path d="M0 0 C2.36273811 2.12514434 3.56632006 3.88510171 4.625 6.875 C4.86476563 7.53242188 5.10453125 8.18984375 5.3515625 8.8671875 C6.83850502 13.75797434 7.11029769 18.19814741 7.0625 23.3125 C7.05347656 24.56675781 7.04445313 25.82101562 7.03515625 27.11328125 C7.02355469 28.06589844 7.01195312 29.01851563 7 30 C2.70893131 30.64984717 -1.58295452 31.29413841 -5.875 31.9375 C-7.07898438 32.11990234 -8.28296875 32.30230469 -9.5234375 32.49023438 C-16.34115028 33.50918601 -23.13417207 34.38116352 -30 35 C-30.66 31.37 -31.32 27.74 -32 24 C-22.18949727 16.83232658 -22.18949727 16.83232658 -17.3984375 13.453125 C-11.37707719 9.20180647 -5.47483437 4.95342157 0 0 Z " fill="#95CDF8" transform="translate(424,254)"/>
<path d="M0 0 C5.80362074 0.50942893 10.45705562 1.66133947 15.75 4.0625 C16.43449219 4.36760498 17.11898438 4.67270996 17.82421875 4.98706055 C24.28344852 7.96182454 30.4943843 11.46412343 36 16 C36 16.66 36 17.32 36 18 C34.59472656 19.296875 34.59472656 19.296875 32.640625 20.75 C31.93679688 21.2759375 31.23296875 21.801875 30.5078125 22.34375 C29.76273437 22.8903125 29.01765625 23.436875 28.25 24 C27.52039063 24.5465625 26.79078125 25.093125 26.0390625 25.65625 C22.77902553 28.0746047 19.68218552 30.26431722 16 32 C15.44054687 31.5875 14.88109375 31.175 14.3046875 30.75 C6.60695591 25.20565313 -1.50870596 20.24564702 -10 16 C-8.31029911 12.33601701 -6.12699789 9.09167428 -3.875 5.75 C-3.15054687 4.67234375 -2.42609375 3.5946875 -1.6796875 2.484375 C-0.84824219 1.25460938 -0.84824219 1.25460938 0 0 Z " fill="#3B82C2" transform="translate(382,228)"/>
<path d="M0 0 C2.44779886 1.16417627 4.40093919 2.69499864 6.50610352 4.39770508 C7.30532227 5.03836914 8.10454102 5.6790332 8.92797852 6.33911133 C9.53125977 6.83282227 10.13454102 7.3265332 10.75610352 7.83520508 C8.99861784 13.93960798 6.13553134 19.48079552 3.31860352 25.14770508 C2.82811523 26.16155273 2.33762695 27.17540039 1.83227539 28.2199707 C1.35467773 29.18225586 0.87708008 30.14454102 0.38500977 31.13598633 C-0.04739014 32.01424072 -0.47979004 32.89249512 -0.92529297 33.79736328 C-2.24389648 35.83520508 -2.24389648 35.83520508 -5.24389648 36.83520508 C-5.24389648 36.17520508 -5.24389648 35.51520508 -5.24389648 34.83520508 C-6.08823242 34.59672852 -6.93256836 34.35825195 -7.80249023 34.11254883 C-11.72137499 32.6579798 -14.85322261 30.71353891 -18.30639648 28.39770508 C-22.2429012 25.8002052 -26.17683441 23.22623779 -30.24389648 20.83520508 C-28.951314 16.95745763 -26.63827807 15.73828197 -23.38061523 13.56958008 C-22.49802788 12.97309662 -22.49802788 12.97309662 -21.59761047 12.36456299 C-20.35202676 11.52674573 -19.10358479 10.69316455 -17.85253906 9.86352539 C-15.93922149 8.5904118 -14.04172321 7.29589404 -12.14428711 5.99926758 C-10.93229767 5.18802377 -9.71943467 4.37808321 -8.50561523 3.56958008 C-7.93880539 3.18010193 -7.37199554 2.79062378 -6.78800964 2.38934326 C-2.81351902 -0.2066288 -2.81351902 -0.2066288 0 0 Z " fill="#48A8F4" transform="translate(130.243896484375,213.164794921875)"/>
<path d="M0 0 C-0.8263685 6.07243559 -1.69692594 12.13703137 -2.59863281 18.19873047 C-2.96205427 20.73516466 -3.28022087 23.27252206 -3.5859375 25.81640625 C-4.93763022 35.93317584 -4.93763022 35.93317584 -7.86328125 38.87109375 C-11.05385993 40.55679254 -13.39465496 41 -17 41 C-19.98170477 34.22036961 -22.16711212 27.30858516 -24.20263672 20.20288086 C-25.31841589 16.30810602 -26.48389628 12.45413619 -27.8125 8.625 C-29 5 -29 5 -29 2 C-25.85495307 1.65896535 -22.70886583 1.32862537 -19.5625 1 C-18.24475586 0.85691406 -18.24475586 0.85691406 -16.90039062 0.7109375 C-11.23241145 0.12531604 -5.69811032 -0.09274645 0 0 Z " fill="#3982C4" transform="translate(519,142)"/>
<path d="M0 0 C1.14829977 2.269616 2.29371978 4.54060778 3.4375 6.8125 C3.76298828 7.45509766 4.08847656 8.09769531 4.42382812 8.75976562 C6.79591324 13.47948136 8.13104422 16.90959498 8.0625 22.1875 C8.05347656 23.08855469 8.04445313 23.98960937 8.03515625 24.91796875 C8.02355469 25.60503906 8.01195312 26.29210937 8 27 C6.27507022 27.53469802 4.544802 28.05219175 2.8125 28.5625 C1.36810547 28.99755859 1.36810547 28.99755859 -0.10546875 29.44140625 C-3.25699445 30.04959542 -4.9762539 30.04686862 -8 29 C-10.2890625 27.25 -10.2890625 27.25 -12.625 25 C-17.09504183 20.79762535 -21.73497122 16.93457076 -26.5546875 13.140625 C-29.05372868 10.95296595 -31.00782649 8.65005407 -33 6 C-9.16943522 -0.15946844 -9.16943522 -0.15946844 0 0 Z " fill="#3C83C3" transform="translate(318,375)"/>
<path d="M0 0 C1 1 1 1 1.11352539 3.13305664 C1.10828857 4.04949951 1.10305176 4.96594238 1.09765625 5.91015625 C1.09443359 6.89951172 1.09121094 7.88886719 1.08789062 8.90820312 C1.07532227 10.46958008 1.07532227 10.46958008 1.0625 12.0625 C1.05798828 13.10728516 1.05347656 14.15207031 1.04882812 15.22851562 C1.03699913 17.8190666 1.02051689 20.40950559 1 23 C-6.90884741 21.40968041 -14.50200649 19.06079598 -22.1875 16.625 C-31.75560852 13.60508148 -41.33955248 10.7076348 -51 8 C-51 7.34 -51 6.68 -51 6 C-34.13893117 -0.38489003 -18.02082898 -2.74894001 0 0 Z " fill="#4BA9F3" transform="translate(491,389)"/>
<path d="M0 0 C2.01391949 0.62335603 4.01132287 1.30028027 6 2 C6.99386719 2.29519531 7.98773438 2.59039062 9.01171875 2.89453125 C13.66950603 6.17629249 14.00699631 10.49389193 15.1875 15.875 C15.4345166 16.91261475 15.6815332 17.95022949 15.93603516 19.01928711 C16.42323576 21.07758908 16.90007481 23.13837552 17.36572266 25.20166016 C17.89638611 27.54287053 18.45542165 29.87183068 19.04296875 32.19921875 C20.34356039 37.45653988 21 41.49369334 21 47 C14.565 47.495 14.565 47.495 8 48 C7.63648438 47.01902344 7.27296875 46.03804687 6.8984375 45.02734375 C6.65810791 44.38216797 6.41777832 43.73699219 6.17016602 43.07226562 C5.63497326 41.63544478 5.10164091 40.19792975 4.57006836 38.75976562 C3.2041251 35.09372946 1.79368742 31.46572579 0.23046875 27.87890625 C-0.04909668 27.22607666 -0.32866211 26.57324707 -0.61669922 25.90063477 C-1.39662023 24.09466063 -2.19584156 22.29705754 -2.99609375 20.5 C-4.65527601 14.71545797 -3.46015999 9.62827126 -1.4375 4 C-1.16808594 3.236875 -0.89867187 2.47375 -0.62109375 1.6875 C-0.41613281 1.130625 -0.21117187 0.57375 0 0 Z " fill="#3B84C4" transform="translate(479,90)"/>
<path d="M0 0 C5.94 0 11.88 0 18 0 C18 12.87 18 25.74 18 39 C12.06 39 6.12 39 0 39 C0 26.13 0 13.26 0 0 Z " fill="#3C84C4" transform="translate(150,18)"/>
<path d="M0 0 C7.92 0 15.84 0 24 0 C24.103125 3.2175 24.20625 6.435 24.3125 9.75 C24.38078003 11.26158691 24.38078003 11.26158691 24.45043945 12.80371094 C24.4890559 15.28413239 24.45170555 17.55790736 24 20 C21.59375 22.4375 21.59375 22.4375 19 24 C17.19020859 27.11662908 17.19020859 27.11662908 16 30 C9.58008874 29.42934122 3.98410537 27.32655091 -2 25 C-1.8608331 21.58302762 -1.71250415 18.16651243 -1.5625 14.75 C-1.52318359 13.78191406 -1.48386719 12.81382813 -1.44335938 11.81640625 C-1.40146484 10.88183594 -1.35957031 9.94726562 -1.31640625 8.984375 C-1.27974854 8.12553711 -1.24309082 7.26669922 -1.20532227 6.38183594 C-1 4 -1 4 0 0 Z " fill="#3982C3" transform="translate(200,88)"/>
<path d="M0 0 C1.0415625 -0.00386719 2.083125 -0.00773437 3.15625 -0.01171875 C8.86628357 -0.00450911 14.35332001 0.26985375 20 1.125 C21.10960573 4.45381718 20.9412896 4.99864252 19.78515625 8.13671875 C19.51123047 8.89404297 19.23730469 9.65136719 18.95507812 10.43164062 C18.66052734 11.21732422 18.36597656 12.00300781 18.0625 12.8125 C17.77181641 13.60978516 17.48113281 14.40707031 17.18164062 15.22851562 C16.46260698 17.19701757 15.73236297 19.16141812 15 21.125 C7.8381711 22.52855546 0.17507231 23.97680079 -7 22.125 C-12.55679386 17.98500027 -15.2920207 11.31924199 -18 5.125 C-18.6594326 3.7880741 -19.32403364 2.45364281 -20 1.125 C-13.30640237 0.11130613 -6.7634093 -0.02511167 0 0 Z " fill="#3881C3" transform="translate(456,58.875)"/>
<path d="M0 0 C12 1 12 1 23 3 C23 11.91 23 20.82 23 30 C15.41 30 7.82 30 0 30 C0 20.1 0 10.2 0 0 Z " fill="#3881C2" transform="translate(201,51)"/>
<path d="M0 0 C3.29140797 0.56231343 6.01815939 1.32637432 8.98828125 2.84765625 C10.04692383 3.38422852 10.04692383 3.38422852 11.12695312 3.93164062 C12.20879883 4.49141602 12.20879883 4.49141602 13.3125 5.0625 C14.05306641 5.43955078 14.79363281 5.81660156 15.55664062 6.20507812 C17.37387522 7.13128157 19.18732404 8.06490629 21 9 C20.236875 9.886875 19.47375 10.77375 18.6875 11.6875 C17.45781991 13.12456082 16.22875357 14.56214687 15 16 C14.37279053 16.73186523 14.37279053 16.73186523 13.73291016 17.47851562 C12.80336939 18.56413971 11.87519129 19.65093174 10.94824219 20.73876953 C9.97936062 21.87522906 9.00732634 23.009008 8.03222656 24.14013672 C5.38446731 27.24120533 3.10176661 30.34720703 0.9375 33.8125 C-0.81284386 36.2486511 -1.50219059 36.89635514 -4.4765625 37.515625 C-8.29095672 37.58157994 -11.37546668 37.20817777 -15 36 C-12.86262202 27.67647686 -9.48041842 20.12558381 -5.8125 12.375 C-5.25369141 11.18003906 -4.69488281 9.98507812 -4.11914062 8.75390625 C-2.75216584 5.83301996 -1.37902365 2.91521191 0 0 Z " fill="#3B83C3" transform="translate(430,355)"/>
<path d="M0 0 C4.80587841 0.62644719 8.62457978 2.62373221 12.875 4.8125 C13.55691406 5.15603516 14.23882812 5.49957031 14.94140625 5.85351562 C19.37523595 8.10421203 23.7006993 10.50236447 28 13 C27.71638858 15.70939422 27.4233895 18.41722661 27.125 21.125 C27.00705078 22.26582031 27.00705078 22.26582031 26.88671875 23.4296875 C26.80292969 24.17734375 26.71914063 24.925 26.6328125 25.6953125 C26.52283936 26.7164917 26.52283936 26.7164917 26.41064453 27.75830078 C25.89489065 30.57378958 24.90515077 33.28454768 24 36 C19.05 36.33 14.1 36.66 9 37 C6.68132876 28.41232874 4.42208072 19.81347396 2.25 11.1875 C2.02739502 10.3099707 1.80479004 9.43244141 1.57543945 8.52832031 C1.2673938 7.29807129 1.2673938 7.29807129 0.953125 6.04296875 C0.76911133 5.31102295 0.58509766 4.57907715 0.39550781 3.82495117 C0 2 0 2 0 0 Z " fill="#3A83C3" transform="translate(497,99)"/>
<path d="M0 0 C5.67771188 0.5357736 10.15465249 2.119455 15.3125 4.5 C16.02728516 4.82097656 16.74207031 5.14195312 17.47851562 5.47265625 C20.00496824 6.61086958 22.52132415 7.76066207 25 9 C24.3850185 15.60132039 22.82360905 21.65462154 20.9375 28 C20.65583984 28.96550781 20.37417969 29.93101563 20.08398438 30.92578125 C19.39475721 33.28550816 18.69999989 35.64345085 18 38 C15.77034576 37.27135482 13.5461618 36.53293894 11.32910156 35.76660156 C8.92099167 34.92918099 8.92099167 34.92918099 6.046875 34.359375 C3.53848059 32.69349474 3.51380255 32.01141362 2.890625 29.140625 C2.65223069 27.51386521 2.44015244 25.88310174 2.25 24.25 C2.13422607 23.40268311 2.01845215 22.55536621 1.89916992 21.68237305 C0.95288576 14.47908167 0.34332336 7.25714544 0 0 Z " fill="#3B83C4" transform="translate(460,0)"/>
<path d="M0 0 C1.44067942 0.79606137 2.84963412 1.65101417 4.23046875 2.546875 C5.03419922 3.0625 5.83792969 3.578125 6.66601562 4.109375 C7.49810547 4.65078125 8.33019531 5.1921875 9.1875 5.75 C15.34517435 9.73466476 21.53986706 13.52273705 28 17 C27.12380958 20.95601854 25.39060918 24.23053594 23.4375 27.75 C23.10814453 28.35199219 22.77878906 28.95398438 22.43945312 29.57421875 C21.6303535 31.05170503 20.81572338 32.52616036 20 34 C15.89715986 32.62267001 13.33157616 30.76356341 10.1875 27.8125 C9.31480469 27.00296875 8.44210938 26.1934375 7.54296875 25.359375 C6.70378906 24.58078125 5.86460938 23.8021875 5 23 C3.67121916 21.84889042 2.33824797 20.70258955 1 19.5625 C-3.91224949 15.29447995 -8.44322882 10.64080999 -13 6 C-5.32599976 -1.85284346 -5.32599976 -1.85284346 0 0 Z " fill="#3B83C2" transform="translate(95,239)"/>
<path d="M0 0 C3.18485163 1.20737203 5.18157858 2.98735009 7.5 5.4375 C9.86688138 7.8807324 12.17481095 10.07887145 15 12 C13.32508169 16.88036541 10.63208039 20.99152948 7.875 25.3125 C7.40707031 26.05306641 6.93914062 26.79363281 6.45703125 27.55664062 C5.30835804 29.37341968 4.15467631 31.18703037 3 33 C0.12491312 31.71556656 -1.74274091 30.46332989 -3.76953125 28.05859375 C-4.26291992 27.47883789 -4.75630859 26.89908203 -5.26464844 26.30175781 C-5.77543945 25.68655273 -6.28623047 25.07134766 -6.8125 24.4375 C-7.34004883 23.81069336 -7.86759766 23.18388672 -8.41113281 22.53808594 C-20 8.70392014 -20 8.70392014 -20 6 C-16.24186855 2.24186855 -13.55460407 1.4858421 -8.3125 1.3125 C-3.99685888 1.2875132 -3.99685888 1.2875132 0 0 Z " fill="#3A82C2" transform="translate(71,159)"/>
<path d="M0 0 C0.66 0 1.32 0 2 0 C2.14099121 0.94206299 2.28198242 1.88412598 2.42724609 2.85473633 C2.95856204 6.40170876 3.49214829 9.94833677 4.02636719 13.49487305 C4.2558129 15.02017285 4.48466997 16.54556134 4.71289062 18.07104492 C6.19947289 28.00441373 7.77974823 37.89874114 9.75 47.75 C8.63004128 52.60315444 5.4316139 54.09062062 1.3828125 56.71484375 C-1 58 -1 58 -3 58 C-4.05077601 55.03057309 -5.05976905 52.04845935 -6.0625 49.0625 C-6.35705078 48.23169922 -6.65160156 47.40089844 -6.95507812 46.54492188 C-10.47376925 35.90605578 -7.44659605 27.21359312 -4.5 16.6875 C-3.86447494 14.37893609 -3.22905378 12.07034357 -2.59375 9.76171875 C-2.31208984 8.75069092 -2.03042969 7.73966309 -1.74023438 6.69799805 C-1.12933401 4.47139518 -0.54760299 2.24283495 0 0 Z " fill="#3D85C5" transform="translate(520,256)"/>
<path d="M0 0 C0.91330078 0.00451172 1.82660156 0.00902344 2.76757812 0.01367188 C4.99095738 0.0253126 7.21419121 0.04166149 9.4375 0.0625 C10.63933475 2.64000095 11.82406886 5.22321162 13 7.8125 C13.34224609 8.54210937 13.68449219 9.27171875 14.03710938 10.0234375 C14.35615234 10.73242188 14.67519531 11.44140625 15.00390625 12.171875 C15.30240479 12.82124023 15.60090332 13.47060547 15.90844727 14.13964844 C16.57163475 16.55001512 16.43126342 17.77231618 15.4375 20.0625 C13.85522461 21.15917969 13.85522461 21.15917969 11.83984375 21.984375 C10.76186523 22.43876953 10.76186523 22.43876953 9.66210938 22.90234375 C8.90736328 23.20269531 8.15261719 23.50304687 7.375 23.8125 C6.61638672 24.12832031 5.85777344 24.44414062 5.07617188 24.76953125 C3.20218524 25.54741249 1.32051873 26.30674502 -0.5625 27.0625 C-3.35585725 24.37940038 -5.28840966 21.52187242 -7.375 18.25 C-10.4254669 13.5869018 -13.54299002 9.88103448 -17.5625 6.0625 C-17.5625 5.4025 -17.5625 4.7425 -17.5625 4.0625 C-18.2225 4.0625 -18.8825 4.0625 -19.5625 4.0625 C-19.5625 3.0725 -19.5625 2.0825 -19.5625 1.0625 C-12.99550475 0.21406826 -6.61699407 -0.06311146 0 0 Z " fill="#3C83C3" transform="translate(297.5625,250.9375)"/>
<path d="M0 0 C3.04560813 -0.40323983 5.05581869 -0.64869527 8 0 C10.56974727 2.16886976 12.1795353 4.84453203 13.9375 7.6875 C14.4418457 8.45392822 14.94619141 9.22035645 15.46582031 10.01000977 C16.49557451 11.57496944 17.51532669 13.14655694 18.52490234 14.72460938 C20.66914151 18.03217459 22.96238992 21.22835622 25.25 24.4375 C29 29.75 29 29.75 29 32 C26.08444885 32.67189656 23.16773049 33.33769308 20.25 34 C19.425 34.19078125 18.6 34.3815625 17.75 34.578125 C16.95078125 34.75859375 16.1515625 34.9390625 15.328125 35.125 C14.22839355 35.37636719 14.22839355 35.37636719 13.10644531 35.6328125 C11 36 11 36 7 36 C5.00160267 28.55142814 3.34141272 21.05704087 1.8125 13.5 C1.63364258 12.62762695 1.45478516 11.75525391 1.27050781 10.85644531 C1.10518555 10.02725586 0.93986328 9.19806641 0.76953125 8.34375 C0.62104736 7.60318359 0.47256348 6.86261719 0.31958008 6.09960938 C0 4 0 4 0 0 Z " fill="#3B83C3" transform="translate(406,93)"/>
<path d="M0 0 C2.28563911 6.21749927 3.73711018 12.26363898 4.6875 18.8125 C4.88182617 20.06063477 4.88182617 20.06063477 5.08007812 21.33398438 C5.63154297 24.97248523 6 28.30141533 6 32 C0.06 32 -5.88 32 -12 32 C-12.84216587 28.79375423 -13.67395782 25.58540177 -14.5 22.375 C-14.85771484 21.01955078 -14.85771484 21.01955078 -15.22265625 19.63671875 C-16.40962058 14.99060123 -17.3215738 10.83968572 -17 6 C-14.73192796 4.9932996 -12.46092246 3.99448234 -10.1875 3 C-9.22360352 2.57074219 -9.22360352 2.57074219 -8.24023438 2.1328125 C-5.32243531 0.86288959 -3.21734286 0 0 0 Z " fill="#3D85C4" transform="translate(358,297)"/>
<path d="M0 0 C3.0030664 0.67299795 5.71686043 1.64298789 8.546875 2.84765625 C9.30838867 3.17000244 10.06990234 3.49234863 10.85449219 3.82446289 C11.81000977 4.23301514 12.76552734 4.64156738 13.75 5.0625 C16.8025 6.361875 19.855 7.66125 23 9 C21.68 15.93 20.36 22.86 19 30 C14.85595283 28.61865094 11.42816276 27.33424704 7.6015625 25.3984375 C6.62832031 24.90859375 5.65507813 24.41875 4.65234375 23.9140625 C3.65332031 23.40617187 2.65429688 22.89828125 1.625 22.375 C0.60277344 21.859375 -0.41945313 21.34375 -1.47265625 20.8125 C-3.98362669 19.54528127 -6.49264561 18.27435444 -9 17 C-7.44439603 12.97986637 -5.57732004 9.39881711 -3.375 5.6875 C-2.74335938 4.61886719 -2.11171875 3.55023438 -1.4609375 2.44921875 C-0.97882813 1.64097656 -0.49671875 0.83273438 0 0 Z " fill="#3B83C3" transform="translate(508,75)"/>
<path d="M0 0 C5.565981 10.06613585 10.29028204 21.40793993 11 33 C6.05 33.495 6.05 33.495 1 34 C0.39414062 33.09121094 -0.21171875 32.18242188 -0.8359375 31.24609375 C-1.23635254 30.64563232 -1.63676758 30.0451709 -2.04931641 29.42651367 C-2.94021577 28.08983648 -3.83050593 26.75275307 -4.72021484 25.4152832 C-7.09631632 21.8452847 -9.48241059 18.28280522 -11.890625 14.734375 C-12.34904785 14.05576416 -12.8074707 13.37715332 -13.27978516 12.67797852 C-14.16640229 11.3660748 -15.05662342 10.05659851 -15.95068359 8.74975586 C-19 4.22486481 -19 4.22486481 -19 2 C-16.77149723 1.66225668 -14.54216533 1.3299813 -12.3125 1 C-10.45044922 0.7215625 -10.45044922 0.7215625 -8.55078125 0.4375 C-5.64113629 0.07899589 -2.92299978 -0.08942256 0 0 Z " fill="#3D84C4" transform="translate(440,89)"/>
<path d="M0 0 C4.62 0 9.24 0 14 0 C14 12.21 14 24.42 14 37 C10 38 10 38 0 38 C0 25.46 0 12.92 0 0 Z " fill="#92CCF9" transform="translate(174,18)"/>
<path d="M0 0 C1.010625 0.804375 2.02125 1.60875 3.0625 2.4375 C13.87439481 10.50835106 25.69784652 16.57309258 38 22 C38 25.63 38 29.26 38 33 C33.07245302 32.0144906 29.16864461 30.52755852 24.625 28.5 C23.83714111 28.14905273 23.04928223 27.79810547 22.23754883 27.43652344 C12.5646855 23.02253213 3.19114615 17.82339379 -5 11 C-4.32902328 6.80639551 -2.1441606 3.59665648 0 0 Z " fill="#15B6DA" transform="translate(185,162)"/>
<path d="M0 0 C4.53890333 0.58345071 8.04830562 2.47258155 11.9375 4.75 C12.53240234 5.08515625 13.12730469 5.4203125 13.74023438 5.765625 C17.86968774 8.14852268 21.40917688 10.86419721 25 14 C22.30809558 17.06684825 18.96458604 18.99219859 15.5 21.0625 C12.2995878 22.99623021 9.11230517 24.92512989 6 27 C3.26716332 26.81021968 2.20333512 26.19486282 0.21875 24.29296875 C-0.63203125 23.25076172 -0.63203125 23.25076172 -1.5 22.1875 C-3.89328226 19.32070813 -6.30214358 16.58994217 -9 14 C-7.65070536 10.16336928 -5.92248975 7.34827431 -3.375 4.1875 C-2.42753906 3.00220703 -2.42753906 3.00220703 -1.4609375 1.79296875 C-0.97882813 1.20128906 -0.49671875 0.60960937 0 0 Z " fill="#3C83C2" transform="translate(368,249)"/>
<path d="M0 0 C1.99888809 9.42332955 2.21867122 18.42706002 2 28 C0.23050388 28.50471197 -1.54065223 29.00360685 -3.3125 29.5 C-4.29863281 29.7784375 -5.28476562 30.056875 -6.30078125 30.34375 C-9 31 -9 31 -12 31 C-12.09796875 30.32195312 -12.1959375 29.64390625 -12.296875 28.9453125 C-13.4732072 21.62365863 -14.92674093 13.81140905 -19.69140625 7.90234375 C-20.12324219 7.27457031 -20.55507813 6.64679688 -21 6 C-20.67 5.01 -20.34 4.02 -20 3 C-17.41747107 2.49550598 -14.83411297 1.99625699 -12.25 1.5 C-11.52039063 1.35691406 -10.79078125 1.21382813 -10.0390625 1.06640625 C-6.60656468 0.41111121 -3.50830509 0 0 0 Z " fill="#3B83C4" transform="translate(345,369)"/>
<path d="M0 0 C2.8624741 0.62651427 5.28081653 1.52170517 7.890625 2.84765625 C8.53032227 3.17000244 9.17001953 3.49234863 9.82910156 3.82446289 C11.02744629 4.43729126 11.02744629 4.43729126 12.25 5.0625 C14.8075 6.361875 17.365 7.66125 20 9 C20 15.6 20 22.2 20 29 C11.47272937 25.72028053 3.24825838 21.91517331 -5 18 C-3.75971762 11.82777121 -2.10396411 5.93317878 0 0 Z " fill="#3C84C3" transform="translate(204,224)"/>
<path d="M0 0 C7.9521055 2.93142789 17.06051096 6.80765695 23 13 C25.14345476 18.12110533 23.89588516 22.57491763 23 28 C16.73 28 10.46 28 4 28 C3.566875 24.6896875 3.566875 24.6896875 3.125 21.3125 C2.18423223 14.19224094 1.12446507 7.09369988 0 0 Z " fill="#3C84C3" transform="translate(367,301)"/>
<path d="M0 0 C1.66999357 2.70717634 2.72778368 5.58132602 3.8125 8.5625 C4.12380859 9.36880859 4.43511719 10.17511719 4.75585938 11.00585938 C5.52173646 12.9971398 6.26322944 14.9977676 7 17 C4.45986091 17.8175507 1.91806769 18.62915186 -0.625 19.4375 C-1.33785156 19.66759766 -2.05070312 19.89769531 -2.78515625 20.13476562 C-6.84175851 21.41873606 -10.76939625 22.41945974 -15 23 C-15.86762314 20.75438718 -16.7192103 18.50473745 -17.5625 16.25 C-17.80935547 15.61578125 -18.05621094 14.9815625 -18.31054688 14.328125 C-19.24894669 11.79048042 -19.98449757 9.46915242 -20.07421875 6.75390625 C-18.2819402 3.82760418 -15.30812237 2.92251096 -12.25 1.6875 C-11.62867188 1.41099609 -11.00734375 1.13449219 -10.3671875 0.84960938 C-3.69409379 -1.94492459 -3.69409379 -1.94492459 0 0 Z " fill="#3D84C3" transform="translate(319,278)"/>
<path d="M0 0 C4.8062981 1.5563251 8.2873864 4.2777311 12.1875 7.375 C13.13012695 8.09816406 13.13012695 8.09816406 14.09179688 8.8359375 C20.42482599 13.82108127 20.42482599 13.82108127 21 17 C19.6640625 19.796875 19.6640625 19.796875 17.625 22.75 C16.95726562 23.73484375 16.28953125 24.7196875 15.6015625 25.734375 C15.07304687 26.48203125 14.54453125 27.2296875 14 28 C12.87980469 27.50628906 11.75960938 27.01257813 10.60546875 26.50390625 C9.13284305 25.85670132 7.66018511 25.20956973 6.1875 24.5625 C5.44951172 24.23701172 4.71152344 23.91152344 3.95117188 23.57617188 C3.23896484 23.26357422 2.52675781 22.95097656 1.79296875 22.62890625 C1.1383667 22.34088135 0.48376465 22.05285645 -0.19067383 21.75610352 C-1.76534587 21.09806016 -3.38094108 20.53968631 -5 20 C-3.76583013 13.17576662 -2.1084005 6.60632156 0 0 Z " fill="#3D84C3" transform="translate(250,242)"/>
<path d="M0 0 C1.19625 0.4125 2.3925 0.825 3.625 1.25 C10.0182437 3.38790069 16.51042602 5.18144228 23 7 C22.46048934 13.68993219 21.11293829 19.63460728 19 26 C14.89020378 24.46268901 11.10603351 22.52691182 7.25 20.4375 C6.10015625 19.81746094 4.9503125 19.19742188 3.765625 18.55859375 C1 17 1 17 0 16 C-0.07319621 13.30345146 -0.09242537 10.63308542 -0.0625 7.9375 C-0.05798828 7.17888672 -0.05347656 6.42027344 -0.04882812 5.63867188 C-0.0370068 3.75908129 -0.01907078 1.87953101 0 0 Z " fill="#3C84C3" transform="translate(230,205)"/>
<path d="M0 0 C3.6578218 2.03993908 5.66946174 3.50419262 8 7 C8.4606067 11.97455239 8.16781812 15.06753613 5 19 C2.3017982 21.11480682 0.44278066 21.92463308 -2.9375 22.5 C-7.25011712 21.79589925 -8.88856971 20.03907145 -12 17 C-13.76713963 13.46572073 -13.78419127 9.837395 -13 6 C-9.76094576 1.38481578 -5.69747567 -1.21222887 0 0 Z " fill="#3D84C4" transform="translate(236,326)"/>
<path d="M0 0 C3.5386994 1.65139305 4.81070153 2.71605229 7 6 C7.72517392 10.50282411 7.60000036 13.99285654 5.25 17.9375 C1.7895112 21.10961473 0.35022674 22.02454958 -4.4375 21.9375 C-8.64827101 20.82940237 -10.25210722 19.31363542 -13 16 C-14.57455739 12.85088521 -14.34799118 10.47991184 -14 7 C-10.36664874 0.89922363 -6.93956752 -0.47047915 0 0 Z " fill="#3D84C3" transform="translate(235,112)"/>
<path d="M0 0 C0.96277259 2.35243492 1.92028498 4.70679619 2.875 7.0625 C3.14441406 7.71927734 3.41382813 8.37605469 3.69140625 9.05273438 C8.51921617 21.0045077 8.51921617 21.0045077 7 26 C-1.33333333 21 -9.66666667 16 -18 11 C-18.94786377 10.47253174 -19.89572754 9.94506348 -20.87231445 9.40161133 C-21.57445068 8.93907959 -22.27658691 8.47654785 -23 8 C-23 7.34 -23 6.68 -23 6 C-20.60539412 5.18372554 -18.20943474 4.37188355 -15.8125 3.5625 C-15.13896484 3.33240234 -14.46542969 3.10230469 -13.77148438 2.86523438 C-9.13206569 1.30367394 -4.90702661 0 0 0 Z " fill="#4085C3" transform="translate(301,14)"/>
<path d="M0 0 C3.02508145 1.73602105 5.41790069 3.83580137 7 7 C7.67660495 12.86390959 7.67660495 12.86390959 5.953125 15.7578125 C4.16405507 17.93626824 2.54084375 19.72957812 0 21 C-7.08958838 21.5811138 -7.08958838 21.5811138 -10.9375 19.125 C-14.34325286 15.6160425 -14.33097275 12.98181561 -14.29296875 8.26171875 C-13.86344199 4.9457722 -12.39075646 3.25012373 -10 1 C-6.77140153 -0.61429923 -3.49006347 -0.59570657 0 0 Z " fill="#3B83C3" transform="translate(67,134)"/>
<path d="M0 0 C4.03881411 1.59104798 8.00530278 3.28798691 12 5 C12 12.59 12 20.18 12 28 C5.62966219 25.87655406 0.7478868 24.03070395 -5 21 C-3.9478458 3.9478458 -3.9478458 3.9478458 0 0 Z " fill="#3F85C5" transform="translate(212,199)"/>
<path d="M0 0 C4.4859375 0.928125 4.4859375 0.928125 9.0625 1.875 C9.99070557 2.06562012 10.91891113 2.25624023 11.87524414 2.45263672 C16.65277822 3.45010457 21.32657615 4.59226582 26 6 C23.15440839 8.99815247 20.19819255 11.38538933 16.8125 13.75 C12.16417435 17.06489175 7.93429467 20.62236306 3.77734375 24.53125 C2 26 2 26 0 26 C0 17.42 0 8.84 0 0 Z " fill="#3E84C3" transform="translate(230,13)"/>
<path d="M0 0 C1.17683626 3.67761331 1.03578346 7.16669708 1 11 C-23.0474163 17.14611384 -23.0474163 17.14611384 -30 17 C-30.66 14.03 -31.32 11.06 -32 8 C-3.54150198 0 -3.54150198 0 0 0 Z " fill="#3F84C2" transform="translate(307,358)"/>
<path d="M0 0 C0.91870999 2.77999255 1.62889228 5.40325629 2.25 8.25 C2.435625 9.01441406 2.62125 9.77882813 2.8125 10.56640625 C4.55286654 18.20028675 4.55286654 18.20028675 3 22 C1.0390625 23.80078125 1.0390625 23.80078125 -1.375 25.3125 C-2.16648437 25.82425781 -2.95796875 26.33601563 -3.7734375 26.86328125 C-6 28 -6 28 -9 28 C-9.12117188 27.10539062 -9.24234375 26.21078125 -9.3671875 25.2890625 C-10.35837206 18.13728469 -11.47145357 11.05733138 -13 4 C-11.40233897 3.13372601 -9.79660056 2.28233535 -8.1875 1.4375 C-7.29417969 0.96183594 -6.40085937 0.48617187 -5.48046875 -0.00390625 C-3 -1 -3 -1 0 0 Z " fill="#4086C5" transform="translate(331,32)"/>
<path d="M0 0 C0.495 4.95 0.495 4.95 1 10 C-2.91285939 11.0029846 -6.82725564 11.99970697 -10.74316406 12.99072266 C-12.07432762 13.32853375 -13.40506342 13.66803521 -14.73535156 14.00927734 C-16.6505509 14.50024399 -18.56744681 14.98457742 -20.484375 15.46875 C-22.21252441 15.90864258 -22.21252441 15.90864258 -23.97558594 16.35742188 C-27 17 -27 17 -31 17 C-31.66 14.03 -32.32 11.06 -33 8 C-28.7837502 6.85588819 -24.56621222 5.7166931 -20.34741211 4.58203125 C-18.91247755 4.19535961 -17.4779034 3.80734788 -16.04370117 3.41796875 C-13.98189132 2.8584468 -11.91883244 2.30376041 -9.85546875 1.75 C-8.61434326 1.41484375 -7.37321777 1.0796875 -6.09448242 0.734375 C-3 0 -3 0 0 0 Z " fill="#4286C3" transform="translate(304,342)"/>
<path d="M0 0 C3.52892447 1.41156979 6.54862203 2.77384533 9.8125 4.625 C10.99779297 5.29402344 10.99779297 5.29402344 12.20703125 5.9765625 C12.79871094 6.31429687 13.39039063 6.65203125 14 7 C14.23136637 12.5021816 13.4350346 17.13853778 12 22.4375 C11.80921875 23.16904297 11.6184375 23.90058594 11.421875 24.65429688 C10.95549597 26.43819666 10.47881722 28.21939845 10 30 C6.08393425 29.46599103 3.60661066 28.80330533 0 27 C0 18.09 0 9.18 0 0 Z " fill="#3D85C4" transform="translate(230,229)"/>
<path d="M0 0 C3.89132055 1.20687333 7.34521158 2.59269758 10.875 4.625 C11.65617187 5.07101563 12.43734375 5.51703125 13.2421875 5.9765625 C14.11230469 6.48316406 14.11230469 6.48316406 15 7 C14.46014954 11.61872062 12.56034183 14.52395069 9.9375 18.3125 C9.20402344 19.38113281 8.47054688 20.44976562 7.71484375 21.55078125 C7.14894531 22.35902344 6.58304687 23.16726562 6 24 C1.2009031 23.21258341 -1.87914943 21.50483074 -6 19 C-5.52877252 12.0886636 -2.79363994 6.27795839 0 0 Z " fill="#3D84C3" transform="translate(488,64)"/>
<path d="M0 0 C2.6190646 0.93485025 5.21302675 1.86167541 7.7578125 2.984375 C6.09114583 7.984375 4.42447917 12.984375 2.7578125 17.984375 C0.04996256 18.32210239 -2.65835746 18.65468187 -5.3671875 18.984375 C-6.12773437 19.07976563 -6.88828125 19.17515625 -7.671875 19.2734375 C-11.89128702 19.78267688 -15.98223094 20.09325568 -20.2421875 19.984375 C-20.2421875 19.324375 -20.2421875 18.664375 -20.2421875 17.984375 C-19.5821875 17.984375 -18.9221875 17.984375 -18.2421875 17.984375 C-17.97051758 17.3963208 -17.69884766 16.8082666 -17.41894531 16.20239258 C-15.48856181 12.56390002 -12.73820301 9.71583626 -9.9921875 6.671875 C-9.15107422 5.68477539 -9.15107422 5.68477539 -8.29296875 4.67773438 C-4.04240561 -0.01948147 -4.04240561 -0.01948147 0 0 Z " fill="#3F85C3" transform="translate(450.2421875,33.015625)"/>
<path d="M0 0 C3.33049122 1.42630308 5.31738937 3.15014396 7.6875 5.875 C8.28949219 6.55304688 8.89148438 7.23109375 9.51171875 7.9296875 C11.00766194 10.01065834 11.5789756 11.49630826 12 14 C10.25395451 15.4630657 8.50300547 16.9202808 6.75 18.375 C5.77546875 19.18710937 4.8009375 19.99921875 3.796875 20.8359375 C1 23 1 23 -3 25 C-5.31 22.69 -7.62 20.38 -10 18 C-6.99599866 11.76190359 -3.80083844 5.79021346 0 0 Z " fill="#3F85C3" transform="translate(255,279)"/>
<path d="M0 0 C11.35858317 -0.18966094 22.66112404 0.39534572 34 1 C33.54705135 2.75140143 33.08741252 4.50107344 32.625 6.25 C32.24214844 7.71179688 32.24214844 7.71179688 31.8515625 9.203125 C31.10401491 11.65837303 30.22876183 13.75617405 29 16 C24.98268821 15.40304093 22.04144591 14.12339321 18.515625 12.12890625 C17.49855469 11.55462891 16.48148438 10.98035156 15.43359375 10.38867188 C14.38300781 9.78603516 13.33242187 9.18339844 12.25 8.5625 C11.18394531 7.96373047 10.11789063 7.36496094 9.01953125 6.74804688 C1.13039261 2.26078521 1.13039261 2.26078521 0 0 Z " fill="#3A82C3" transform="translate(164,221)"/>
<path d="M0 0 C8.91326433 5.21752058 14.03961613 13.1330867 19 22 C16.49347141 24.56431599 14.32177686 26.53223813 11 28 C7.37812866 27.2031883 5.09033109 26.06022073 2 24 C1.44647099 21.22051478 1.07120326 18.62026105 0.8125 15.8125 C0.73064453 15.06935547 0.64878906 14.32621094 0.56445312 13.56054688 C0.09072602 9.0183399 -0.07860784 4.56530176 0 0 Z " fill="#3E85C4" transform="translate(234,296)"/>
<path d="M0 0 C6.34648842 2.6365543 12.69068172 5.27552165 19 8 C17.51481201 12.04301175 15.57122002 15.61146256 13.375 19.3125 C12.74335938 20.38113281 12.11171875 21.44976562 11.4609375 22.55078125 C10.73777344 23.76314453 10.73777344 23.76314453 10 25 C6.54107541 23.7509439 3.71925117 22.50260753 1 20 C0.45410156 17.82348633 0.45410156 17.82348633 0.390625 15.33203125 C0.35839844 14.43935547 0.32617188 13.54667969 0.29296875 12.62695312 C0.27878906 11.69818359 0.26460937 10.76941406 0.25 9.8125 C0.22035156 8.87212891 0.19070312 7.93175781 0.16015625 6.96289062 C0.08946438 4.64184084 0.03676835 2.32179465 0 0 Z " fill="#4CAAF4" transform="translate(231,268)"/>
<path d="M0 0 C2.28953836 6.98575424 4.42351925 13.64987044 5 21 C-3.42857143 23.28571429 -3.42857143 23.28571429 -8 23 C-10.1233191 17.12003942 -11.52741147 11.06706475 -13 5 C-11.21046815 4.16209211 -9.41830305 3.32980604 -7.625 2.5 C-6.62726563 2.0359375 -5.62953125 1.571875 -4.6015625 1.09375 C-2 0 -2 0 0 0 Z " fill="#4086C4" transform="translate(277,320)"/>
<path d="M0 0 C2.4744657 7.98734511 4.61375277 15.61843511 5 24 C0.06818247 22.27730925 -4.22933739 19.61088504 -8.6875 16.9375 C-10.21194601 16.02945488 -11.73667231 15.1218801 -13.26171875 14.21484375 C-13.93162842 13.81386475 -14.60153809 13.41288574 -15.29174805 12.99975586 C-16.50379568 12.29040398 -17.74389823 11.62805088 -19 11 C-19 10.34 -19 9.68 -19 9 C-16.2118978 7.4933028 -13.41896042 5.99580196 -10.625 4.5 C-9.8309375 4.07074219 -9.036875 3.64148438 -8.21875 3.19921875 C-7.45820313 2.79316406 -6.69765625 2.38710938 -5.9140625 1.96875 C-4.8614624 1.40317383 -4.8614624 1.40317383 -3.78759766 0.82617188 C-2 0 -2 0 0 0 Z " fill="#4286C4" transform="translate(385,283)"/>
<path d="M0 0 C4.1403898 1.47980598 7.58703856 3.51507353 11.25 5.9375 C12.30703125 6.62714844 13.3640625 7.31679688 14.453125 8.02734375 C17 10 17 10 18 13 C18 15.31 18 17.62 18 20 C11.07 19.34 4.14 18.68 -3 18 C-0.99107143 3.53571429 -0.99107143 3.53571429 0 0 Z " fill="#3E84C3" transform="translate(295,40)"/>
<path d="M0 0 C2.00865708 6.50422293 3.38614349 12.1781317 3 19 C1.75336669 19.50833591 0.50250613 20.00631145 -0.75 20.5 C-1.44609375 20.7784375 -2.1421875 21.056875 -2.859375 21.34375 C-5 22 -5 22 -9 22 C-10.32 15.73 -11.64 9.46 -13 3 C-4 -0.375 -4 -0.375 0 0 Z " fill="#3D85C4" transform="translate(297,316)"/>
<path d="M0 0 C4.16051656 1.54832009 6.03783061 4.30381375 8.625 7.8125 C9.78902344 9.36904297 9.78902344 9.36904297 10.9765625 10.95703125 C12.74893113 13.62242732 13.96452532 15.98821612 15 19 C13.75539217 19.67667998 12.50403104 20.34094719 11.25 21 C10.55390625 21.37125 9.8578125 21.7425 9.140625 22.125 C7 23 7 23 3 23 C1.1484375 21.1015625 1.1484375 21.1015625 -0.625 18.625 C-3.13721431 15.16403577 -3.13721431 15.16403577 -6 12 C-5.62655279 8.76798416 -4.18828083 6.44350897 -2.4375 3.75 C-1.98246094 3.04359375 -1.52742188 2.3371875 -1.05859375 1.609375 C-0.53458984 0.81273437 -0.53458984 0.81273437 0 0 Z " fill="#3E84C3" transform="translate(274,262)"/>
<path d="M0 0 C0.95619733 3.99795892 1.1039592 7.70803922 1.0625 11.8125 C1.05347656 12.97394531 1.04445313 14.13539063 1.03515625 15.33203125 C1.02355469 16.21246094 1.01195312 17.09289062 1 18 C-2.33209776 16.71663984 -5.49104583 15.29046548 -8.64453125 13.6171875 C-9.90620117 12.95009766 -9.90620117 12.95009766 -11.19335938 12.26953125 C-12.05767578 11.80933594 -12.92199219 11.34914062 -13.8125 10.875 C-14.69615234 10.40707031 -15.57980469 9.93914062 -16.49023438 9.45703125 C-18.66135525 8.30692397 -20.8312226 7.15451854 -23 6 C-23 5.34 -23 4.68 -23 4 C-19.73011701 3.32861379 -16.45894951 2.66370737 -13.1875 2 C-12.25873047 1.80921875 -11.32996094 1.6184375 -10.37304688 1.421875 C-9.48037109 1.24140625 -8.58769531 1.0609375 -7.66796875 0.875 C-6.84578857 0.70742187 -6.0236084 0.53984375 -5.17651367 0.3671875 C-3 0 -3 0 0 0 Z " fill="#4588C4" transform="translate(453,128)"/>
<path d="M0 0 C5.61 0 11.22 0 17 0 C17.99 4.29 18.98 8.58 20 13 C10.89285714 17.15178571 10.89285714 17.15178571 7 18 C6.49339844 16.67935547 6.49339844 16.67935547 5.9765625 15.33203125 C5.53054688 14.17058594 5.08453125 13.00914063 4.625 11.8125 C3.96371094 10.08966797 3.96371094 10.08966797 3.2890625 8.33203125 C2.21171783 5.54725851 1.10893741 2.77234352 0 0 Z " fill="#4287C4" transform="translate(308,12)"/>
<path d="M0 0 C1.1673418 3.5020254 0.79056598 4.29616038 -0.43359375 7.66796875 C-0.9121582 9.00698242 -0.9121582 9.00698242 -1.40039062 10.37304688 C-1.91375977 11.76620117 -1.91375977 11.76620117 -2.4375 13.1875 C-2.77587891 14.12787109 -3.11425781 15.06824219 -3.46289062 16.03710938 C-4.30048809 18.36114742 -5.14645283 20.68178235 -6 23 C-9.98886486 21.74836205 -13.65718567 20.2841479 -17.375 18.375 C-18.24898438 17.92898438 -19.12296875 17.48296875 -20.0234375 17.0234375 C-20.67570312 16.68570312 -21.32796875 16.34796875 -22 16 C-18.04170742 11.66769552 -13.76392301 8.76196095 -8.75 5.75 C-7.30668022 4.87079464 -5.86393999 3.99063694 -4.421875 3.109375 C-3.78862305 2.72749023 -3.15537109 2.34560547 -2.50292969 1.95214844 C-1.01056694 1.08353447 -1.01056694 1.08353447 0 0 Z " fill="#4186C3" transform="translate(515,249)"/>
<path d="M0 0 C6.93998648 2.16163513 13.43117569 4.8936214 20 8 C19.39816251 10.02045442 18.72693904 12.02111039 18 14 C15.44521799 15.27739101 14.2329425 14.88495926 11.4296875 14.44140625 C10.53378906 14.30283203 9.63789063 14.16425781 8.71484375 14.02148438 C7.77769531 13.87001953 6.84054687 13.71855469 5.875 13.5625 C4.93011719 13.41490234 3.98523438 13.26730469 3.01171875 13.11523438 C0.67352573 12.74915365 -1.66357596 12.37717914 -4 12 C-4.23955652 6.65489511 -3.26607323 4.28672112 0 0 Z " fill="#3E84C2" transform="translate(463,39)"/>
<path d="M0 0 C0.67321284 2.24805002 1.33834123 4.49852224 2 6.75 C2.556875 8.62945312 2.556875 8.62945312 3.125 10.546875 C4 14 4 14 4 18 C-3.04246707 22.22897527 -3.04246707 22.22897527 -6.875 21.3125 C-7.926875 20.6628125 -7.926875 20.6628125 -9 20 C-9.66 19.67 -10.32 19.34 -11 19 C-10.690625 18.030625 -10.38125 17.06125 -10.0625 16.0625 C-9.17713179 13.08499459 -8.85983229 10.34691263 -8.6875 7.25 C-8.31491264 3.27347677 -8.31491264 3.27347677 -5.625 0.9375 C-3 0 -3 0 0 0 Z " fill="#4086C4" transform="translate(258,329)"/>
<path d="M0 0 C4.95 0 9.9 0 15 0 C14.39610093 5.55338111 13.44556303 10.84114384 12.0625 16.25 C11.89298828 16.94351563 11.72347656 17.63703125 11.54882812 18.3515625 C10.68521269 21.77975458 9.76722332 24.92518993 8 28 C7.75765625 27.12859375 7.5153125 26.2571875 7.265625 25.359375 C5.2713429 18.27200322 3.15222826 11.28410285 0.734375 4.328125 C0 2 0 2 0 0 Z " fill="#98CEF9" transform="translate(453,88)"/>
<path d="M0 0 C3.2908988 1.09696627 3.96796717 1.84801856 6.125 4.4375 C9.7159839 8.68069251 13.43113919 12.79409478 17.1796875 16.8984375 C19 19 19 19 20 21 C17.97895295 20.85715908 15.95817023 20.71057617 13.9375 20.5625 C12.81214844 20.48128906 11.68679687 20.40007813 10.52734375 20.31640625 C7.00504258 20.00045232 3.50090042 19.50012863 0 19 C0 12.73 0 6.46 0 0 Z " fill="#3A83C3" transform="translate(200,25)"/>
<path d="M0 0 C3.87939509 1.58620127 6.33361087 4.09920987 9.25 7.0625 C10.14203125 7.96097656 11.0340625 8.85945312 11.953125 9.78515625 C14 12 14 12 14 13 C10.37579876 13.8368335 6.75051363 14.66887234 3.125 15.5 C2.09246094 15.73847656 1.05992188 15.97695312 -0.00390625 16.22265625 C-0.99003906 16.44824219 -1.97617188 16.67382812 -2.9921875 16.90625 C-3.90339355 17.11572266 -4.81459961 17.32519531 -5.75341797 17.54101562 C-8 18 -8 18 -10 18 C-8.47146065 13.72813475 -6.28490519 10.00673137 -3.875 6.1875 C-3.50246094 5.59001953 -3.12992187 4.99253906 -2.74609375 4.37695312 C-1.8342952 2.91573749 -0.91764024 1.45755415 0 0 Z " fill="#4085C2" transform="translate(90,177)"/>
<path d="M0 0 C0.66 0 1.32 0 2 0 C3.20235238 3.26556587 4.38427591 6.53815915 5.5625 9.8125 C5.90474609 10.74126953 6.24699219 11.67003906 6.59960938 12.62695312 C6.91865234 13.51962891 7.23769531 14.41230469 7.56640625 15.33203125 C7.86490479 16.15421143 8.16340332 16.9763916 8.47094727 17.82348633 C9 20 9 20 8 23 C5.27734375 24.60546875 5.27734375 24.60546875 1.9375 26.1875 C0.83277344 26.71730469 -0.27195312 27.24710938 -1.41015625 27.79296875 C-2.26480469 28.19128906 -3.11945313 28.58960938 -4 29 C-3.50940538 19.12043934 -1.97298648 9.66639286 0 0 Z " fill="#4389C6" transform="translate(471,120)"/>
<path d="M0 0 C0.84212256 1.91282125 1.67338864 3.83042473 2.5 5.75 C2.9640625 6.81734375 3.428125 7.8846875 3.90625 8.984375 C5 12 5 12 5 16 C0.73383684 17.13764351 -2.56486311 18 -7 18 C-7.67260351 16.23141309 -8.33788395 14.46003984 -9 12.6875 C-9.37125 11.70136719 -9.7425 10.71523438 -10.125 9.69921875 C-11 7 -11 7 -11 4 C-9.73308493 3.32591692 -8.46129251 2.66099503 -7.1875 2 C-6.47980469 1.62875 -5.77210938 1.2575 -5.04296875 0.875 C-3 0 -3 0 0 0 Z " fill="#3D84C2" transform="translate(293,287)"/>
<path d="M0 0 C0.50833591 1.24663331 1.00631145 2.49749387 1.5 3.75 C1.7784375 4.44609375 2.056875 5.1421875 2.34375 5.859375 C3 8 3 8 3 12 C0.8765984 12.83739781 -1.2487728 13.66980283 -3.375 14.5 C-4.55835938 14.9640625 -5.74171875 15.428125 -6.9609375 15.90625 C-10 17 -10 17 -12 17 C-15 12.61538462 -15 12.61538462 -15 10 C-13.44996996 8.60410053 -11.83365761 7.28112981 -10.1875 6 C-9.29417969 5.29875 -8.40085937 4.5975 -7.48046875 3.875 C-2.35416667 0 -2.35416667 0 0 0 Z " fill="#3E84C3" transform="translate(271,298)"/>
<path d="M0 0 C2.91985181 0.68088981 5.35122304 1.58101234 8 3 C6.4260921 9.82026757 4.27204442 16.38239489 2 23 C0.02 23 -1.96 23 -4 23 C-3.48400816 15.1177798 -1.9078547 7.65541695 0 0 Z " fill="#458AC7" transform="translate(199,193)"/>
<path d="M0 0 C3.37462715 0.54723683 5.08235 1.0549 8 3 C7.32414935 6.32209174 6.08166075 8.99549008 4.49609375 11.984375 C4.00302734 12.91894531 3.50996094 13.85351562 3.00195312 14.81640625 C2.48568359 15.78449219 1.96941406 16.75257812 1.4375 17.75 C0.91736328 18.73355469 0.39722656 19.71710937 -0.13867188 20.73046875 C-1.42193507 23.15571846 -2.70916566 25.578774 -4 28 C-4.66 28 -5.32 28 -6 28 C-5.5286045 18.25782625 -2.74524722 9.29939832 0 0 Z " fill="#4589C6" transform="translate(490,13)"/>
<path d="M0 0 C4.62 0 9.24 0 14 0 C13.67 0.99 13.34 1.98 13 3 C9.37 2.67 5.74 2.34 2 2 C2 13.22 2 24.44 2 36 C3.98 36 5.96 36 8 36 C8.66 36.66 9.32 37.32 10 38 C6.7 38 3.4 38 0 38 C0 25.46 0 12.92 0 0 Z " fill="#A4D6FA" transform="translate(174,18)"/>
<path d="M0 0 C0.33 3.63 0.66 7.26 1 11 C-4.625 13 -4.625 13 -8 13 C-8.33 9.04 -8.66 5.08 -9 1 C-4 0 -4 0 0 0 Z " fill="#99CFF9" transform="translate(321,355)"/>
<path d="M0 0 C1.0415625 -0.00386719 2.083125 -0.00773437 3.15625 -0.01171875 C8.86628357 -0.00450911 14.35332001 0.26985375 20 1.125 C21.13643966 4.53431897 20.86747764 5.12835456 19.5625 8.3125 C19.13130859 9.38564453 19.13130859 9.38564453 18.69140625 10.48046875 C18.34916016 11.29451172 18.34916016 11.29451172 18 12.125 C17.67 12.125 17.34 12.125 17 12.125 C17.33 9.155 17.66 6.185 18 3.125 C5.46 2.795 -7.08 2.465 -20 2.125 C-20 1.795 -20 1.465 -20 1.125 C-13.30640237 0.11130613 -6.7634093 -0.02511167 0 0 Z " fill="#5A8FBE" transform="translate(456,58.875)"/>
<path d="M0 0 C0 0.33 0 0.66 0 1 C-1.8097229 1.08302368 -1.8097229 1.08302368 -3.65600586 1.16772461 C-8.11587274 1.37357242 -12.57542712 1.58561167 -17.03491211 1.79956055 C-18.96810023 1.89143129 -20.90136981 1.98160393 -22.8347168 2.07006836 C-25.60748908 2.19723368 -28.37991477 2.33042648 -31.15234375 2.46484375 C-32.02213364 2.50343002 -32.89192352 2.5420163 -33.78807068 2.58177185 C-37.71419159 2.40767539 -37.71419159 2.40767539 -41 4 C-41.23481693 6.18292774 -41.41363323 8.37203174 -41.5625 10.5625 C-41.68818359 12.35880859 -41.68818359 12.35880859 -41.81640625 14.19140625 C-41.87699219 15.11824219 -41.93757813 16.04507813 -42 17 C-42.66 17 -43.32 17 -44 17 C-44.02763357 15.64595503 -44.04667422 14.29173445 -44.0625 12.9375 C-44.07410156 12.18339844 -44.08570312 11.42929688 -44.09765625 10.65234375 C-43.97749477 7.38875808 -43.50128186 4.22478174 -43 1 C-14.06736359 -0.19388403 -14.06736359 -0.19388403 0 0 Z " fill="#4B88BF" transform="translate(110,55)"/>
<path d="M0 0 C10.88909485 -0.20082347 21.42393151 -0.06056584 32.2109375 1.48828125 C38.12120284 2.28647172 44.04738415 2.64656343 50 3 C50 3.33 50 3.66 50 4 C33.18133343 4.22033188 16.69228144 3.01088303 0 1 C0 0.67 0 0.34 0 0 Z " fill="#43B9D2" transform="translate(278,209)"/>
<path d="M0 0 C12.73163508 -0.36211623 24.58366358 0.04958343 37 3 C37 3.33 37 3.66 37 4 C24.61930915 3.39058776 12.32524361 2.31282326 0 1 C0 0.67 0 0.34 0 0 Z " fill="#3EB9D3" transform="translate(329,213)"/>
<path d="M0 0 C11.35858317 -0.18966094 22.66112404 0.39534572 34 1 C33.67 2.65 33.34 4.3 33 6 C32.505 4.02 32.505 4.02 32 2 C23.42 2 14.84 2 6 2 C6 2.66 6 3.32 6 4 C1.125 2.25 1.125 2.25 0 0 Z " fill="#528ABC" transform="translate(164,221)"/>
<path d="M0 0 C7.21782671 1.16219244 14.27065351 2.74860841 21.33984375 4.59082031 C25.20890599 5.59084188 29.04806054 6.40567732 33 7 C33 7.33 33 7.66 33 8 C31.18757948 8.02687279 29.37504767 8.04633715 27.5625 8.0625 C26.55316406 8.07410156 25.54382813 8.08570313 24.50390625 8.09765625 C22 8 22 8 21 7 C19.824375 6.87625 18.64875 6.7525 17.4375 6.625 C13.60265713 6.19890635 10.39429021 5.13957987 6.83203125 3.69921875 C4.59367861 2.84492211 2.36371478 2.36933043 0 2 C0 1.34 0 0.68 0 0 Z " fill="#34B6D1" transform="translate(239,191)"/>
<path d="M0 0 C6.64409958 -0.21432579 12.53205867 0.48766299 19 2 C19 2.66 19 3.32 19 4 C20.65 4 22.3 4 24 4 C24.33 4.99 24.66 5.98 25 7 C23.94941406 6.73445312 22.89882813 6.46890625 21.81640625 6.1953125 C14.56308403 4.36816609 7.31488991 2.56747641 0 1 C0 0.67 0 0.34 0 0 Z " fill="#3EB9D3" transform="translate(366,217)"/>
<path d="M0 0 C0.33 3.63 0.66 7.26 1 11 C-0.32 11.33 -1.64 11.66 -3 12 C-3 11.34 -3 10.68 -3 10 C-2.34 10 -1.68 10 -1 10 C-1.33 7.36 -1.66 4.72 -2 2 C-5.12197478 3.3089572 -5.12197478 3.3089572 -7 6 C-7.66 6 -8.32 6 -9 6 C-9 4.35 -9 2.7 -9 1 C-5.846632 0.29925156 -3.27275026 0 0 0 Z " fill="#A9D7F8" transform="translate(321,355)"/>
<path d="M0 0 C1.485 0.99 1.485 0.99 3 2 C2.67 2.33 2.34 2.66 2 3 C1.63239269 5.32817964 1.29758419 7.6618385 1 10 C4.65456815 10.75241109 8.31733897 11.40049704 12 12 C12 12.66 12 13.32 12 14 C13.32 14.33 14.64 14.66 16 15 C12.11764181 16.49828872 9.56550712 15.43110582 5.75 14.0625 C4.67234375 13.68222656 3.5946875 13.30195313 2.484375 12.91015625 C1.66453125 12.60980469 0.8446875 12.30945313 0 12 C0 8.04 0 4.08 0 0 Z " fill="#31B6D4" transform="translate(231,187)"/>
<path d="M0 0 C0.66 0.66 1.32 1.32 2 2 C1.01 2.99 0.02 3.98 -1 5 C4.61 5.66 10.22 6.32 16 7 C15.67 7.66 15.34 8.32 15 9 C8.4 8.34 1.8 7.68 -5 7 C-3.38262276 3.76524552 -2.52370777 2.29427979 0 0 Z " fill="#508ABE" transform="translate(239,44)"/>
<path d="M0 0 C1.98 0.99 1.98 0.99 4 2 C3.67 2.66 3.34 3.32 3 4 C2.67 4 2.34 4 2 4 C1.67 13.9 1.34 23.8 1 34 C0.67 34 0.34 34 0 34 C0 22.78 0 11.56 0 0 Z " fill="#4B8EC7" transform="translate(388,30)"/>
<path d="M0 0 C0.33 0 0.66 0 1 0 C1 7.92 1 15.84 1 24 C-1.97 24.33 -4.94 24.66 -8 25 C-8.33 24.01 -8.66 23.02 -9 22 C-6.03 22.33 -3.06 22.66 0 23 C0 15.41 0 7.82 0 0 Z " fill="#458AC5" transform="translate(380,66)"/>
<path d="M0 0 C0.33 0 0.66 0 1 0 C1 7.26 1 14.52 1 22 C-8 20 -8 20 -11 18 C-7.7 18.33 -4.4 18.66 -1 19 C-0.67 12.73 -0.34 6.46 0 0 Z " fill="#77BCF2" transform="translate(491,390)"/>
<path d="M0 0 C0.66 0 1.32 0 2 0 C2.66 5.28 3.32 10.56 4 16 C1 12 1 12 0 10 C-0.66 9.67 -1.32 9.34 -2 9 C-1.34 6.03 -0.68 3.06 0 0 Z " fill="#5E9BD1" transform="translate(520,256)"/>
<path d="M0 0 C0.66 0.33 1.32 0.66 2 1 C1.67 2.65 1.34 4.3 1 6 C6.28 6.33 11.56 6.66 17 7 C17 7.33 17 7.66 17 8 C11.06 8 5.12 8 -1 8 C-0.67 5.36 -0.34 2.72 0 0 Z " fill="#639CCE" transform="translate(451,302)"/>
<path d="M0 0 C0 3.6987636 -0.84352062 4.35773852 -3.25 7.0625 C-4.15492188 8.10083984 -4.15492188 8.10083984 -5.078125 9.16015625 C-6.97018869 10.97146113 -8.60605599 11.9778071 -11 13 C-9.46356148 9.31930113 -7.21849055 7.01224796 -4.375 4.25 C-3.55773437 3.45078125 -2.74046875 2.6515625 -1.8984375 1.828125 C-0.95871094 0.92320312 -0.95871094 0.92320312 0 0 Z " fill="#5692C8" transform="translate(465,360)"/>
<path d="M0 0 C1.65 1.65 3.3 3.3 5 5 C2.87436897 4.88623383 0.7494739 4.75864369 -1.375 4.625 C-2.55835938 4.55539063 -3.74171875 4.48578125 -4.9609375 4.4140625 C-8 4 -8 4 -10 2 C-6.7 2 -3.4 2 0 2 C0 1.34 0 0.68 0 0 Z " fill="#5A91C1" transform="translate(215,41)"/>
<path d="M0 0 C2.5 2.3125 2.5 2.3125 5 5 C5 5.99 5 6.98 5 8 C4.34 6.68 3.68 5.36 3 4 C1.02 4.99 -0.96 5.98 -3 7 C-3.33 6.34 -3.66 5.68 -4 5 C-2.68 3.35 -1.36 1.7 0 0 Z " fill="#3ABDD7" transform="translate(438,239)"/>
<path d="M0 0 C0 0.99 0 1.98 0 3 C-5.94 2.67 -11.88 2.34 -18 2 C-18 1.67 -18 1.34 -18 1 C-11.93303301 0.22959149 -6.11485027 -0.09706112 0 0 Z " fill="#6095C5" transform="translate(519,142)"/>
<path d="M0 0 C6.62177926 0.30656385 11.22125154 1.74288723 17 5 C17 5.66 17 6.32 17 7 C11.27789404 5.13236819 5.62338249 3.14710968 0 1 C0 0.67 0 0.34 0 0 Z " fill="#3EB8D4" transform="translate(392,224)"/>
<path d="M0 0 C4.875 1.75 4.875 1.75 6 4 C4.35 3.67 2.7 3.34 1 3 C0.87625 4.299375 0.7525 5.59875 0.625 6.9375 C0.4140625 9.15234375 0.4140625 9.15234375 0 11 C-0.99 11.495 -0.99 11.495 -2 12 C-1 3.42857143 -1 3.42857143 0 0 Z " fill="#5996CC" transform="translate(295,40)"/>
<path d="M0 0 C3.63 0.33 7.26 0.66 11 1 C8.63707344 3.52588702 7.33537489 4.88820837 4 6 C4 5.34 4 4.68 4 4 C4.66 4 5.32 4 6 4 C6 3.34 6 2.68 6 2 C4.02 2 2.04 2 0 2 C0 1.34 0 0.68 0 0 Z " fill="#5D92C2" transform="translate(302,65)"/>
<path d="M0 0 C0.66 0 1.32 0 2 0 C1.34 3.63 0.68 7.26 0 11 C-1.64350079 7.71299843 -2.41321669 5.52069985 -3 2 C-2.34 2 -1.68 2 -1 2 C-0.67 1.34 -0.34 0.68 0 0 Z " fill="#A6D7FB" transform="translate(462,105)"/>
<path d="M0 0 C2.91517292 1.07401108 4.77810176 1.77810176 7 4 C5.35 4.33 3.7 4.66 2 5 C2 6.65 2 8.3 2 10 C1.67 10 1.34 10 1 10 C0.67 6.7 0.34 3.4 0 0 Z " fill="#5D97CA" transform="translate(367,301)"/>
<path d="M0 0 C4 2 4 2 5 4 C3.8553125 4.12375 3.8553125 4.12375 2.6875 4.25 C-0.52373261 5.14615794 -1.29374499 6.21611025 -3 9 C-3.66 8.67 -4.32 8.34 -5 8 C-3.35 5.36 -1.7 2.72 0 0 Z " fill="#5491C7" transform="translate(90,177)"/>
<path d="M0 0 C2 3 2 3 3 7 C0.69 8.65 -1.62 10.3 -4 12 C-4.33 11.34 -4.66 10.68 -5 10 C-3.35 9.34 -1.7 8.68 0 8 C0 5.36 0 2.72 0 0 Z " fill="#ABD6F7" transform="translate(509,313)"/>
<path d="M0 0 C2.6015625 0.2421875 2.6015625 0.2421875 5.625 0.875 C6.62789063 1.07867187 7.63078125 1.28234375 8.6640625 1.4921875 C9.43492187 1.65976563 10.20578125 1.82734375 11 2 C10.34 3.32 9.68 4.64 9 6 C8.67 5.01 8.34 4.02 8 3 C4.7 2.67 1.4 2.34 -2 2 C-1.34 1.34 -0.68 0.68 0 0 Z " fill="#5D91C1" transform="translate(365,223)"/>
<path d="M0 0 C1.36125 0.37125 1.36125 0.37125 2.75 0.75 C2.42 1.41 2.09 2.07 1.75 2.75 C0.43 2.75 -0.89 2.75 -2.25 2.75 C-4.98219193 4.66859167 -4.98219193 4.66859167 -7.25 6.75 C-7.25 3.75 -7.25 3.75 -5.625 1.5 C-3.25 -0.25 -3.25 -0.25 0 0 Z " fill="#4A89C1" transform="translate(450.25,33.25)"/>
<path d="M0 0 C0.99 0.33 1.98 0.66 3 1 C2.67 1.66 2.34 2.32 2 3 C1.7677354 5.71262116 1.58063765 8.40773126 1.4375 11.125 C1.39431641 11.87910156 1.35113281 12.63320313 1.30664062 13.41015625 C1.2005168 15.27321888 1.09974999 17.13658524 1 19 C0.67 19 0.34 19 0 19 C0 12.73 0 6.46 0 0 Z " fill="#7AAAD4" transform="translate(200,25)"/>
<path d="M0 0 C0 0.66 0 1.32 0 2 C-3.465 3.485 -3.465 3.485 -7 5 C-7 5.66 -7 6.32 -7 7 C-7.66 7 -8.32 7 -9 7 C-9.33 5.68 -9.66 4.36 -10 3 C-8.70990357 2.49596232 -7.41786211 1.99690074 -6.125 1.5 C-5.04605469 1.08234375 -5.04605469 1.08234375 -3.9453125 0.65625 C-2 0 -2 0 0 0 Z " fill="#548FC4" transform="translate(294,316)"/>
<path d="M0 0 C0.68707555 2.49064888 1 4.37886292 1 7 C0.34 7 -0.32 7 -1 7 C-1.33 8.32 -1.66 9.64 -2 11 C-2.66 11 -3.32 11 -4 11 C-2.7874262 7.27566618 -1.49140021 3.62197194 0 0 Z " fill="#2ABBDA" transform="translate(405,369)"/>
<path d="M0 0 C0.70125 0.309375 1.4025 0.61875 2.125 0.9375 C5.08936657 2.03302678 7.87698108 2.56422992 11 3 C10.01 4.485 10.01 4.485 9 6 C5.06326356 4.68775452 2.77280706 3.08089673 0 0 Z " fill="#3CBAD3" transform="translate(414,234)"/>
<path d="M0 0 C1.98 0.99 1.98 0.99 4 2 C3.835 2.53625 3.67 3.0725 3.5 3.625 C2.90339788 6.45886009 2.9343632 9.1119806 3 12 C0.97649676 8.96474514 0.67875982 7.80573798 0.375 4.3125 C0.30023438 3.50425781 0.22546875 2.69601563 0.1484375 1.86328125 C0.09945312 1.24839844 0.05046875 0.63351563 0 0 Z " fill="#4F8FC8" transform="translate(68,116)"/>
<path d="M0 0 C1.65 0 3.3 0 5 0 C6.13643966 3.40931897 5.86747764 4.00335456 4.5625 7.1875 C4.27503906 7.90292969 3.98757813 8.61835937 3.69140625 9.35546875 C3.46324219 9.89816406 3.23507812 10.44085938 3 11 C2.67 11 2.34 11 2 11 C2.33 8.03 2.66 5.06 3 2 C2.01 1.34 1.02 0.68 0 0 Z " fill="#5692C8" transform="translate(471,60)"/>
<path d="M0 0 C0 0.66 0 1.32 0 2 C-1.62171239 2.38897161 -3.24754925 2.76078298 -4.875 3.125 C-5.77992188 3.33382812 -6.68484375 3.54265625 -7.6171875 3.7578125 C-8.40351563 3.83773437 -9.18984375 3.91765625 -10 4 C-10.66 3.34 -11.32 2.68 -12 2 C-10.56342755 1.66269158 -9.12569907 1.33030409 -7.6875 1 C-6.88699219 0.814375 -6.08648437 0.62875 -5.26171875 0.4375 C-3 0 -3 0 0 0 Z " fill="#5791C3" transform="translate(414,136)"/>
<path d="M0 0 C0.66 1.32 1.32 2.64 2 4 C1 5 1 5 -0.84765625 5.09765625 C-2.8984375 5.06510417 -4.94921875 5.03255208 -7 5 C-6.67 4.34 -6.34 3.68 -6 3 C-4.02 3 -2.04 3 0 3 C0 2.01 0 1.02 0 0 Z " fill="#6BB3EB" transform="translate(364,88)"/>
<path d="M0 0 C0.33 0.66 0.66 1.32 1 2 C-0.375 4.5 -0.375 4.5 -2 7 C-2.33 7.66 -2.66 8.32 -3 9 C-3.66 7.35 -4.32 5.7 -5 4 C-3.35 2.68 -1.7 1.36 0 0 Z " fill="#508DC3" transform="translate(261,304)"/>
<path d="M0 0 C1.45922693 0.11409593 2.91740598 0.24165544 4.375 0.375 C5.59316406 0.47941406 5.59316406 0.47941406 6.8359375 0.5859375 C9 1 9 1 11 3 C8.03 2.67 5.06 2.34 2 2 C1.67 2.66 1.34 3.32 1 4 C0.67 2.68 0.34 1.36 0 0 Z " fill="#5E92C1" transform="translate(314,251)"/>
<path d="M0 0 C3.96 0 7.92 0 12 0 C11.67 0.99 11.34 1.98 11 3 C7.37 2.34 3.74 1.68 0 1 C0 0.67 0 0.34 0 0 Z " fill="#4E89BE" transform="translate(469,51)"/>
<path d="M0 0 C-1.7015625 0.433125 -1.7015625 0.433125 -3.4375 0.875 C-4.613125 1.24625 -5.78875 1.6175 -7 2 C-7.33 2.66 -7.66 3.32 -8 4 C-8 2.68 -8 1.36 -8 0 C-4.94736336 -0.98120464 -3.05263664 -0.98120464 0 0 Z " fill="#5D93C3" transform="translate(333,372)"/>
<path d="M0 0 C1.06546953 3.1964086 1.07427838 5.65747276 1 9 C-0.32 7.68 -1.64 6.36 -3 5 C-1.125 1.125 -1.125 1.125 0 0 Z " fill="#36B7D2" transform="translate(433,245)"/>
<path d="M0 0 C2.64 0 5.28 0 8 0 C7.34 0.66 6.68 1.32 6 2 C4.68 2 3.36 2 2 2 C2 2.66 2 3.32 2 4 C1.34 4 0.68 4 0 4 C0 2.68 0 1.36 0 0 Z " fill="#538CBF" transform="translate(406,93)"/>
<path d="M0 0 C0.33 0 0.66 0 1 0 C1.66 3.63 2.32 7.26 3 11 C2.01 11 1.02 11 0 11 C0 7.37 0 3.74 0 0 Z " fill="#498ECB" transform="translate(236,309)"/>
<path d="M0 0 C0.66 0.33 1.32 0.66 2 1 C0.515 3.475 0.515 3.475 -1 6 C-2.32 5.34 -3.64 4.68 -5 4 C-3.73293765 1.46587529 -2.59334288 1.02161992 0 0 Z " fill="#6FB5EB" transform="translate(99,121)"/>
<path d="M0 0 C2.475 0.495 2.475 0.495 5 1 C4.34 2.65 3.68 4.3 3 6 C2.34 6 1.68 6 1 6 C0.67 4.02 0.34 2.04 0 0 Z " fill="#5592C9" transform="translate(497,99)"/>
<path d="M0 0 C3.3 0.33 6.6 0.66 10 1 C6.23312136 2.88343932 4.97041037 3.22057835 1 3 C0.67 2.01 0.34 1.02 0 0 Z " fill="#538CBF" transform="translate(371,88)"/>
</svg>
